<svg width="90" height="90" viewBox="0 0 90 90" fill="none" xmlns="http://www.w3.org/2000/svg">
<circle cx="45" cy="45" r="45" fill="url(#paint0_linear_144_884)"/>
<path fill-rule="evenodd" clip-rule="evenodd" d="M44.1694 28.0346C39.2606 28.4943 35.0979 30.6416 32.0231 34.3003C30.0082 36.6977 28.6541 39.7444 28.1358 43.0464C27.9547 44.1997 27.9547 46.8297 28.1358 47.9829C28.6775 51.4343 30.032 54.4022 32.2372 56.9691C35.0241 60.2133 38.922 62.3069 43.2934 62.9076C44.1928 63.0312 46.7794 63.0307 47.6734 62.9067C52.7586 62.2019 57.0749 59.5651 59.9237 55.4232C62.1874 52.1321 63.2849 47.9903 62.9366 44.0541C62.1821 35.5294 55.5493 28.8514 47.0529 28.062C46.3102 27.993 44.7698 27.9784 44.1694 28.0346ZM45.5522 33.0251C45.883 33.1201 46.2703 33.5043 46.3597 33.8265C46.3993 33.9689 46.4318 34.6686 46.432 35.3816L46.4324 36.6779H47.1507C49.4001 36.6779 51.2695 38.0276 51.9557 40.1469C52.2128 40.9408 52.239 41.9668 52.0102 42.2769C51.4859 42.9875 50.5835 42.9949 50.0639 42.2928C49.9733 42.1704 49.9 41.9011 49.8598 41.5426C49.7742 40.7791 49.5059 40.2078 49.0149 39.7432C48.4471 39.2059 48.086 39.0652 47.1807 39.0287L46.4324 38.9983V41.6723V44.3462H47.0465C47.9769 44.3462 48.7019 44.5111 49.4968 44.9038C50.0595 45.1816 50.2994 45.3562 50.7811 45.8381C51.2661 46.3233 51.4348 46.5562 51.7118 47.123C52.3247 48.3769 52.4271 49.666 52.0121 50.9045C51.2968 53.0387 49.4595 54.3514 47.1872 54.3514H46.4324L46.432 55.6477C46.4318 56.3606 46.3983 57.064 46.3576 57.2107C46.2567 57.574 45.803 57.9731 45.4169 58.0384C45.176 58.0791 45.0448 58.0546 44.7734 57.9184C44.1593 57.6102 44.1381 57.5461 44.0964 55.8617L44.0599 54.3879L43.1474 54.3438C41.6686 54.2724 40.7537 53.8725 39.7449 52.8567C38.8374 51.9428 38.3299 50.7868 38.304 49.5745C38.2912 48.9749 38.4354 48.6521 38.837 48.3813C39.2926 48.0743 40.0594 48.2138 40.3784 48.6619C40.4705 48.7913 40.5628 49.1119 40.6228 49.511C40.7906 50.628 41.2481 51.3134 42.109 51.7378C42.5462 51.9534 42.6724 51.9805 43.3462 52.0028L44.0964 52.0277V49.3653V46.7029L43.2022 46.6649C42.5171 46.6358 42.1714 46.5829 41.724 46.4386C40.366 46.0005 39.3339 45.0972 38.7304 43.819C38.3307 42.9724 38.2349 42.4794 38.2723 41.4639C38.3236 40.0702 38.7216 39.139 39.68 38.1693C40.6644 37.1732 41.6216 36.7599 43.1109 36.6875L44.0599 36.6414L44.0964 35.1677C44.138 33.4916 44.1605 33.4216 44.7549 33.1177C45.1165 32.9328 45.1976 32.9234 45.5522 33.0251ZM42.5635 39.0832C41.0405 39.5483 40.2082 41.2599 40.8211 42.6665C41.3033 43.7731 42.2237 44.3462 43.5189 44.3462H44.0964V41.6805V39.0149L43.4212 39.0212C43.0498 39.0246 42.6638 39.0525 42.5635 39.0832ZM46.4324 49.3554V52.0277L47.1827 52.0028C47.8564 51.9805 47.9826 51.9534 48.4198 51.7378C50.2376 50.8417 50.4191 48.3017 48.7462 47.169C48.2523 46.8345 47.7093 46.6832 47.0031 46.6832H46.4324V49.3554Z" fill="white"/>
<defs>
<linearGradient id="paint0_linear_144_884" x1="0" y1="45" x2="90" y2="45" gradientUnits="userSpaceOnUse">
<stop stop-color="#27292A"/>
<stop offset="0.0648207" stop-color="#414345"/>
<stop offset="0.223996" stop-color="#303233"/>
<stop offset="0.775681" stop-color="#27292A"/>
<stop offset="1" stop-color="#1D1F20"/>
</linearGradient>
</defs>
</svg>
