<svg width="90" height="90" viewBox="0 0 90 90" fill="none" xmlns="http://www.w3.org/2000/svg">
<circle cx="45" cy="45" r="45" fill="url(#paint0_linear_144_886)"/>
<path fill-rule="evenodd" clip-rule="evenodd" d="M33.3061 25.101C31.874 25.4297 30.6391 26.579 30.268 27.9284C29.8105 29.5918 30.6499 31.4299 32.26 32.2905C33.4537 32.9285 35.0411 32.9285 36.2347 32.2905C38.6192 31.016 39.0654 27.9796 37.1368 26.153C36.132 25.2013 34.6463 24.7933 33.3061 25.101ZM51.9492 25.075C51.276 25.2001 50.4384 25.6426 49.8876 26.1643C48.2613 27.7046 48.2669 30.107 49.9003 31.6417C51.2599 32.9192 53.3816 33.1398 54.9671 32.1685C56.3175 31.3411 57.0643 29.8425 56.8477 28.3946C56.7087 27.4648 56.355 26.8072 55.6191 26.1102C54.6776 25.2185 53.2878 24.8265 51.9492 25.075ZM30.1958 34.8648C28.8382 35.1761 27.6698 36.2299 27.1984 37.5685C27.0641 37.9499 27.0508 38.4241 27.0264 43.677L27 49.372H28.5724H30.1448V56.686V64H34.2474H38.3499V56.686V49.372H39.9223H41.4948L41.4684 43.677C41.444 38.4241 41.4306 37.9499 41.2964 37.5685C40.8183 36.2111 39.6535 35.1719 38.262 34.8613C37.5334 34.6986 30.9082 34.7015 30.1958 34.8648ZM51.824 34.8327C50.7564 35.0229 49.5584 35.885 49.06 36.8217C48.921 37.0827 47.6205 40.6647 46.1698 44.7817L43.5322 52.2671H46.6123H49.6923V58.1336V64H52.7893H55.8864V58.1336V52.2671H58.9432C60.6244 52.2671 62 52.2407 62 52.2085C62 51.9806 56.6546 37.0263 56.4552 36.6962C55.5731 35.2361 53.7278 34.4936 51.824 34.8327Z" fill="white"/>
<defs>
<linearGradient id="paint0_linear_144_886" x1="0" y1="45" x2="90" y2="45" gradientUnits="userSpaceOnUse">
<stop stop-color="#27292A"/>
<stop offset="0.0648207" stop-color="#414345"/>
<stop offset="0.223996" stop-color="#303233"/>
<stop offset="0.775681" stop-color="#27292A"/>
<stop offset="1" stop-color="#1D1F20"/>
</linearGradient>
</defs>
</svg>
