<svg width="90" height="90" viewBox="0 0 90 90" fill="none" xmlns="http://www.w3.org/2000/svg">
<circle cx="45" cy="45" r="45" fill="url(#paint0_linear_144_890)"/>
<path fill-rule="evenodd" clip-rule="evenodd" d="M32.8189 28.1444C32.6696 28.2218 32.4689 28.4091 32.373 28.5605C32.2033 28.8283 32.1978 28.8885 32.1744 30.7501L32.1504 32.6643H35.7227H39.2951V30.76C39.2951 28.9373 39.2881 28.8436 39.1328 28.5723C39.0294 28.3918 38.8591 28.2361 38.6635 28.1431C38.3737 28.0054 38.2084 27.9974 35.7233 28.0005C33.2692 28.0035 33.0718 28.0133 32.8189 28.1444ZM58.7149 32.7681C56.9963 33.1771 55.8 34.9199 56.088 36.595C56.197 37.2294 56.3391 37.5211 57.7565 40.0214L58.913 42.0611V50.7804V59.4997H59.5074H60.1019V50.8381V42.1764L61.468 39.753C62.2194 38.4201 62.8715 37.1842 62.9171 37.0065C62.9627 36.8287 63 36.4077 63 36.0708C63 35.0554 62.6593 34.2907 61.8993 33.6003C61.0159 32.7976 59.86 32.4955 58.7149 32.7681ZM31.2948 33.9802C30.8132 34.1315 30.232 34.5152 29.9069 34.8964C29.3796 35.5146 29.193 36.2389 29.1904 37.6777L29.189 38.4981H35.733H42.2771L42.2537 37.2381C42.2304 35.9829 42.2295 35.9764 41.9875 35.4947C41.6799 34.882 41.0324 34.276 40.4309 34.0378L40.0011 33.8675L35.8769 33.8519C31.9511 33.837 31.7307 33.8432 31.2948 33.9802ZM28 41.415V43.1651H35.7282H43.4565V41.415V39.6648H35.7282H28V41.415ZM28.5958 46.4648C28.5995 52.4488 29.0556 55.4438 30.7127 60.3684C31.4544 62.5724 31.5405 62.7386 32.0361 62.9224C32.1733 62.9733 33.4662 63 35.79 63C39.7454 63 39.6572 63.0107 40.0213 62.4871C40.2477 62.1617 41.4305 58.5963 41.8107 57.0933C42.6436 53.8008 42.8601 51.7985 42.8613 47.3764L42.862 44.3319H35.7282H28.5945L28.5958 46.4648ZM45.3142 49.0643C45.3142 49.1229 46.4075 52.6423 47.1798 55.0697L47.4756 55.9994H50.0303H52.5851L52.6626 55.7624C52.8595 55.1608 54.6842 49.3254 54.7234 49.172L54.7677 48.9989H50.0409C47.3005 48.9989 45.3142 49.0264 45.3142 49.0643ZM47.476 57.549C47.295 58.4362 46.5032 62.78 46.5032 62.8852C46.5032 62.988 46.8715 63 50.0329 63C52.8314 63 53.5626 62.9809 53.5626 62.9077C53.5626 62.8568 53.3286 61.553 53.0425 60.0102C52.7564 58.4674 52.5223 57.1963 52.5223 57.1856C52.5223 57.1749 51.4044 57.1662 50.0382 57.1662H47.5541L47.476 57.549ZM56.535 61.8332V63H59.5074H62.4798V61.8332V60.6665H59.5074H56.535V61.8332Z" fill="white"/>
<defs>
<linearGradient id="paint0_linear_144_890" x1="0" y1="45" x2="90" y2="45" gradientUnits="userSpaceOnUse">
<stop stop-color="#27292A"/>
<stop offset="0.0648207" stop-color="#414345"/>
<stop offset="0.223996" stop-color="#303233"/>
<stop offset="0.775681" stop-color="#27292A"/>
<stop offset="1" stop-color="#1D1F20"/>
</linearGradient>
</defs>
</svg>
