<svg width="90" height="90" viewBox="0 0 90 90" fill="none" xmlns="http://www.w3.org/2000/svg">
<circle cx="45" cy="45" r="45" fill="url(#paint0_linear_144_892)"/>
<path fill-rule="evenodd" clip-rule="evenodd" d="M42.9091 27.0421C39.3209 27.4017 36.1592 28.664 33.5308 30.7864C32.6229 31.5196 31.1056 33.0817 30.4654 33.9424C27.2813 38.2234 26.2219 43.7724 27.5769 49.0713C27.8675 50.2077 28.1894 51.0825 28.7327 52.2124C29.3977 53.5954 30.2725 54.9354 31.0713 55.7946L31.4088 56.1574L35.687 51.8732L39.9652 47.5889H35.7725H31.5799V44.5065V41.4242H38.8534H46.1268L51.1511 36.3965L56.1754 31.3689L55.9148 31.1394C54.8341 30.1877 53.7247 29.4568 52.2874 28.7498C50.655 27.9467 49.0132 27.443 47.0506 27.143C46.1967 27.0125 43.7895 26.9538 42.9091 27.0421ZM53.3487 37.1399L49.0705 41.4242H53.2631H57.4557V44.5065V47.5889H50.1822H42.9088L37.8891 52.612L32.8694 57.6351L33.2343 57.9657C34.9088 59.4826 37.4637 60.811 39.9364 61.4505C41.6079 61.8828 42.6168 62.0047 44.4836 61.9999C45.6002 61.997 46.3685 61.9608 46.8818 61.8869C49.9869 61.44 52.6871 60.3461 55.0755 58.5675C55.9357 57.9269 57.4969 56.4087 58.2296 55.5002C60.1669 53.0982 61.4147 50.155 61.8879 46.872C61.9625 46.3543 61.9978 45.5982 61.9998 44.4723C62.0024 43.0834 61.9785 42.6743 61.8461 41.8352C61.6581 40.6446 61.3194 39.2884 60.9798 38.3663C60.2915 36.4978 59.0624 34.3996 57.9643 33.2185L57.6269 32.8557L53.3487 37.1399ZM33.6335 44.5065V45.534H34.6603H35.6872V44.5065V43.4791H34.6603H33.6335V44.5065ZM37.8093 44.5065V45.534H39.9151H42.0209L43.046 44.5065L44.0711 43.4791H40.9402H37.8093V44.5065ZM45.9896 44.5065L44.9645 45.534H47.5136H50.0626V44.5065V43.4791H48.5386H47.0147L45.9896 44.5065ZM52.1619 43.5248C52.1368 43.5499 52.1163 44.0122 52.1163 44.5522V45.534H53.7592H55.4021V44.5065V43.4791H53.8048C52.9263 43.4791 52.187 43.4996 52.1619 43.5248Z" fill="white"/>
<defs>
<linearGradient id="paint0_linear_144_892" x1="0" y1="45" x2="90" y2="45" gradientUnits="userSpaceOnUse">
<stop stop-color="#27292A"/>
<stop offset="0.0648207" stop-color="#414345"/>
<stop offset="0.223996" stop-color="#303233"/>
<stop offset="0.775681" stop-color="#27292A"/>
<stop offset="1" stop-color="#1D1F20"/>
</linearGradient>
</defs>
</svg>
