<svg width="90" height="90" viewBox="0 0 90 90" fill="none" xmlns="http://www.w3.org/2000/svg">
<circle cx="45" cy="45" r="45" fill="url(#paint0_linear_144_897)"/>
<path fill-rule="evenodd" clip-rule="evenodd" d="M40.5054 28.5352L39.3462 32.0703L44.8105 32.0904C47.816 32.1014 50.2855 32.0999 50.2984 32.0871C50.3112 32.0742 49.9879 31.0281 49.5799 29.7623C49.172 28.4966 48.6615 26.9073 48.4455 26.2305L48.0527 25H44.8587H41.6646L40.5054 28.5352ZM39 35.2769V36.1007L41.9382 37.5583L44.8764 39.0159L47.7976 37.553L50.7188 36.0901V35.2716V34.4531H44.8594H39V35.2769ZM39 51.875V65H44.8594H50.7188V51.875C50.7188 44.6562 50.701 38.75 50.6793 38.75C50.6576 38.75 49.3417 39.3992 47.7552 40.1927L44.8706 41.6354L41.9698 40.1927C40.3744 39.3992 39.0534 38.75 39.0345 38.75C39.0155 38.75 39 44.6562 39 51.875ZM46.0312 49.6875V50.8594H44.8594H43.6875V49.6875V48.5156H44.8594H46.0312V49.6875Z" fill="white"/>
<defs>
<linearGradient id="paint0_linear_144_897" x1="0" y1="45" x2="90" y2="45" gradientUnits="userSpaceOnUse">
<stop stop-color="#27292A"/>
<stop offset="0.0648207" stop-color="#414345"/>
<stop offset="0.223996" stop-color="#303233"/>
<stop offset="0.775681" stop-color="#27292A"/>
<stop offset="1" stop-color="#1D1F20"/>
</linearGradient>
</defs>
</svg>
