<svg width="25" height="107" viewBox="0 0 25 107" fill="none" xmlns="http://www.w3.org/2000/svg">
<path fill-rule="evenodd" clip-rule="evenodd" d="M0.17853 13.2204C0.39606 13.6861 0.826275 14.113 1.23024 14.2643C1.62977 14.4139 2.45709 14.3966 2.84198 14.2306C3.02247 14.1528 4.78118 12.4862 6.80073 10.4793L10.4346 6.8678L10.4851 28.3485L10.5356 105.7L10.7751 106.081C10.9068 106.292 11.1989 106.584 11.4239 106.732C11.7648 106.955 11.9451 107 12.504 107C13.0628 107 13.2431 106.955 13.584 106.732C13.809 106.584 14.1011 106.292 14.2328 106.081L14.4723 105.7L14.5228 28.3485L14.5733 6.8678L18.2072 10.4793C20.2267 12.4862 21.9854 14.1528 22.1659 14.2306C22.5508 14.3966 23.3781 14.4139 23.7776 14.2643C24.7551 13.8984 25.2852 12.5952 24.8415 11.6491C24.6384 11.2163 14.1168 0.606704 13.5352 0.24842C12.9783 -0.0947653 11.9818 -0.0802618 11.4342 0.278823C10.7994 0.69503 0.365879 11.2234 0.166418 11.6489C-0.0596924 12.1312 -0.0551505 12.7203 0.17853 13.2204Z" fill="#030303"/>
</svg>
