<svg width="46" height="40" viewBox="0 0 46 40" fill="none" xmlns="http://www.w3.org/2000/svg">
<path fill-rule="evenodd" clip-rule="evenodd" d="M13.8535 0.114809C12.7063 0.405723 11.6109 1.30379 11.1208 2.35528L10.8749 2.88287L9.37402 2.88318C7.29628 2.88357 7.23874 2.92476 7.23874 4.41208V5.22768L5.35443 5.22886C3.95713 5.22972 3.34937 5.25981 3.00296 5.34539C1.56387 5.70071 0.374101 6.95191 0.0824619 8.41656C0.0240296 8.71005 0 12.9167 0 22.8485C0 36.5888 0.00291055 36.8762 0.147462 37.3663C0.519473 38.6279 1.5629 39.5734 2.93221 39.8897C3.41363 40.0009 4.70824 40.0117 15.2611 39.992L27.052 39.9701L27.5504 39.7669C28.4724 39.3909 29.2748 38.7 29.6244 37.981C30.0203 37.1668 29.9997 37.9996 29.9997 22.8161C29.9997 7.47472 30.0253 8.39968 29.5741 7.41618C29.3134 6.84795 28.4532 5.9552 27.8971 5.67586C27.1263 5.28857 26.7009 5.23011 24.6453 5.22886L22.761 5.22768V4.41208C22.761 3.45852 22.702 3.25085 22.3711 3.0395C22.1476 2.89686 21.9942 2.88341 20.582 2.88318L19.0373 2.88287L18.7978 2.35528C18.4722 1.63777 17.6815 0.809501 16.9969 0.468564C16.0965 0.0203132 14.8013 -0.125456 13.8535 0.114809ZM15.97 2.02091C16.7183 2.42438 17.145 2.95087 17.3641 3.74107C17.6289 4.69572 17.7639 4.75872 19.5447 4.75872H20.8953V6.67366V8.58859H14.9999H9.1044V6.6785V4.76841L10.4798 4.74403C12.1295 4.7148 12.1665 4.69823 12.4678 3.85159C12.7515 3.05459 12.8653 2.86161 13.2842 2.46713C13.8293 1.95385 14.2929 1.78096 15.0372 1.81363C15.479 1.83301 15.7214 1.88687 15.97 2.02091ZM7.2512 8.45181C7.27419 9.69746 7.28867 9.8186 7.44202 10.0438C7.53329 10.1778 7.7012 10.3279 7.81515 10.3772C7.96732 10.4432 9.89835 10.4615 15.0872 10.4462L22.152 10.4254L22.3542 10.23C22.7081 9.88793 22.761 9.63829 22.761 8.31073V7.08994L24.6826 7.11628L26.6042 7.14262L27.0299 7.36155C27.4836 7.59486 27.7421 7.86553 28.0071 8.38412L28.1714 8.70583L28.1927 22.5793C28.2093 33.3528 28.1936 36.5308 28.1225 36.802C28.0053 37.2489 27.5368 37.7469 27.047 37.9452C26.6915 38.0891 26.2862 38.0949 15.1928 38.115C2.70042 38.1375 3.21908 38.1542 2.54692 37.7098C2.1958 37.4777 1.987 37.1861 1.87058 36.7655C1.80595 36.5322 1.78961 32.9319 1.80618 22.5793C1.82752 9.20653 1.83334 8.69598 1.96774 8.43227C2.32968 7.72195 2.80826 7.3184 3.44378 7.18756C3.62243 7.15075 4.5466 7.11683 5.49749 7.11214L7.22643 7.10354L7.2512 8.45181ZM5.48127 15.849C5.18052 16.0045 5 16.3403 5 16.7442C5 17.1898 5.34798 17.5674 5.82537 17.6399C6.0076 17.6676 16.7163 17.653 19.5894 17.6399C25.2734 17.614 25.0266 17.6347 25.302 17.1617C25.5714 16.6989 25.4556 16.1965 25.0063 15.8794L24.7538 15.7012L19.3358 15.703C14.6632 15.7045 5.67761 15.7476 5.48127 15.849ZM5 23.4375C4.38724 23.6969 4.36672 24.7922 4.96858 25.1182C5.2985 25.2969 24.5949 25.297 24.9545 25.1183C25.4022 24.8958 25.5738 24.3124 25.3343 23.8273C25.0954 23.3434 25.3175 23.3605 19.3133 23.3659C16.3047 23.3686 5.08672 23.4009 5 23.4375ZM4.89582 31.0183C4.81045 31.0544 4.6509 31.1956 4.54135 31.3319C4.12852 31.8459 4.3718 32.6329 5 32.8156C5.4147 32.9362 24.5095 32.9165 24.8479 32.7945C24.9957 32.7412 25.1796 32.5873 25.277 32.4355C25.5769 31.9684 25.4697 31.4478 25.0063 31.1207L24.7538 30.9425L19.3358 30.9474C16.3559 30.9502 4.98127 30.9821 4.89582 31.0183Z" fill="white"/>
<circle cx="33.5" cy="19.5" r="12.5" fill="#C04A48"/>
<path d="M38 16L31.8125 23L29 19.8182" stroke="white" stroke-width="2" stroke-linecap="round" stroke-linejoin="round"/>
</svg>
