<svg width="132" height="100" viewBox="0 0 132 100" fill="none" xmlns="http://www.w3.org/2000/svg">
<path d="M0.0248184 32.1233C0.0248184 32.1091 0.0232582 32.0949 0.0232582 32.0807C0.0232582 14.8633 14.0912 0.90625 31.4454 0.90625C48.7995 0.90625 62.8672 14.8631 62.8672 32.0807C62.8672 49.2984 48.7979 63.2552 31.4451 63.2552C27.8785 63.2552 24.4645 62.6383 21.27 61.5516C28.3395 101.787 59.965 127.735 30.6485 106.379C-1.8594 82.6984 -0.0115547 33.0319 0.0248184 32.1233Z" fill="#F4F4F4"/>
<path d="M100.578 63.2549C97.0113 63.2549 93.5973 62.6381 90.4013 61.5513C97.4725 101.787 129.098 127.735 99.7813 106.379C67.2734 82.6984 69.1209 33.0319 69.1576 32.1233C69.1576 32.1091 69.156 32.0949 69.156 32.0807C69.156 14.8633 83.2237 0.90625 100.578 0.90625C117.932 0.90625 132 14.8631 132 32.0807C132 49.2984 117.931 63.2549 100.578 63.2549Z" fill="#F4F4F4"/>
</svg>
