<svg width="44" height="42" viewBox="0 0 44 42" fill="none" xmlns="http://www.w3.org/2000/svg">
<path d="M43.4106 21.6803C43.3806 20.4603 43.2906 19.2203 43.0206 18.0303C42.5807 16.1103 41.5406 14.5303 39.5606 13.9003C37.3906 13.2103 35.4506 13.8603 33.7006 15.2103C33.6106 15.2803 33.5306 15.4203 33.5306 15.5203C33.5206 16.8603 33.5206 18.1903 33.5206 19.5203C34.1606 19.3903 34.7306 19.2203 35.3106 19.1703C36.0906 19.1003 36.8206 19.2603 37.2706 20.0003C37.7206 20.7303 38.0006 21.5403 38.0106 22.3903C38.0406 25.6603 38.0406 28.9303 38.0106 32.1903C38.0006 33.6303 37.2407 34.5903 35.9007 35.0503C35.7906 35.0903 35.6306 35.2503 35.6306 35.3503C35.6207 36.9603 35.6407 38.5703 35.6507 40.1803C35.6507 40.4503 35.7607 40.5703 36.0606 40.5703C38.9106 40.6003 41.7706 38.6303 42.7606 35.9203C43.4406 34.0603 43.5206 32.1203 43.5106 30.1703C43.4906 27.3603 43.4907 24.5203 43.4106 21.6803ZM37.7706 7.07031C39.1606 6.92031 40.5606 6.76031 41.9506 6.61031C42.1806 6.59031 42.3006 6.53031 42.3006 6.27031C42.2906 4.65031 42.3006 3.02031 42.3006 1.32031C40.0306 1.58031 37.8406 1.82031 35.6606 2.08031C33.1606 2.37031 30.7106 2.68031 28.2106 2.95031C28.1306 3.98031 28.0506 5.06031 27.9806 6.11031C27.9406 6.77031 27.9106 7.43031 27.8806 8.13031C29.2706 7.98031 30.6006 7.84031 31.9306 7.70031C33.8806 7.49031 35.8206 7.28031 37.7706 7.07031ZM32.2206 23.7003C32.2906 20.9103 32.3506 18.1203 32.4306 15.3403C32.4706 13.7503 32.5406 12.1603 32.5807 10.5603C32.5907 10.0903 32.5807 9.62031 32.5807 9.13031C32.3507 9.13031 32.1906 9.12031 32.0406 9.13031C30.8006 9.19031 29.5606 9.28031 28.3106 9.31031C27.8706 9.32031 27.7706 9.49031 27.7606 9.87031C27.7406 10.7503 27.7006 11.6203 27.6706 12.5003C27.5406 15.9503 27.4107 19.4103 27.2906 22.8603C27.2706 23.3203 27.2906 23.7803 27.2906 24.3203C28.8706 24.2703 30.3806 24.2203 31.9006 24.1703C32.2306 24.1603 32.2206 23.9403 32.2206 23.7003ZM34.1606 35.0003C32.9706 34.8703 32.3507 33.7203 32.3106 32.6003C32.2607 31.2503 32.2306 29.8903 32.2106 28.5403C32.2106 28.2003 32.1106 28.0603 31.7406 28.0703C30.4206 28.1103 29.0906 28.1403 27.7606 28.1503C27.4006 28.1503 27.3406 28.3003 27.3506 28.6103C27.3706 29.4703 27.3606 30.3303 27.3906 31.1903C27.4306 32.5103 27.3906 33.8503 27.5906 35.1503C27.8606 36.8103 28.6706 38.2803 30.0806 39.2503C31.3306 40.1103 32.8006 40.4503 34.4106 40.6403C34.4106 38.8003 34.4106 37.0403 34.4007 35.2703C34.4106 35.1803 34.2606 35.0103 34.1606 35.0003ZM1.14065 20.5903H5.45065C5.45065 19.3103 5.43065 18.0903 5.45065 16.8703C5.50065 14.3803 6.20065 13.6103 8.65065 13.3103C8.70065 13.3003 8.74065 13.2503 8.84065 13.1903V9.12031C5.92065 8.79031 2.71065 10.8403 1.66065 13.6903C0.810649 15.9403 1.26065 18.2703 1.14065 20.5903ZM8.11065 31.1903C6.19065 31.1103 5.62065 30.5003 5.58065 28.5703C5.55065 27.1003 5.58065 25.6303 5.55065 24.1603C5.54065 23.5403 5.47065 22.9103 5.42065 22.2803H1.16065C1.16065 24.5603 1.05065 26.7503 1.18065 28.9303C1.46065 33.4003 3.85065 35.9103 8.05065 36.4203C8.64065 36.4903 8.86065 36.3303 8.84065 35.7403C8.81065 34.4703 8.82065 33.1903 8.84065 31.9203C8.85065 31.3703 8.65065 31.2103 8.11065 31.1903ZM18.8206 15.3503C18.8306 16.2603 18.8306 17.1803 18.8406 18.0903C18.8406 18.7103 18.8406 19.3303 18.8406 19.9403H23.7406C23.7406 17.8303 23.8306 15.8303 23.7106 13.8503C23.6106 12.0803 22.7506 10.6303 21.2206 9.65031C19.6506 8.64031 17.9006 8.49031 16.1006 8.64031C15.9306 8.65031 15.6606 8.92031 15.6506 9.08031C15.6106 10.3703 15.6306 11.6703 15.6306 13.0003C16.0106 13.0203 16.2806 13.0403 16.5506 13.0503C18.1906 13.1103 18.7906 13.7203 18.8206 15.3503ZM9.73065 40.7303H14.5906V4.27031C12.9206 4.45031 11.3306 4.62031 9.73065 4.79031V40.7303ZM23.7806 21.6803C22.3506 21.6803 21.0306 21.7003 19.7106 21.6703C19.0906 21.6503 18.8906 21.8703 18.8906 22.4903C18.9106 24.2403 18.8506 25.9803 18.8606 27.7303C18.8706 29.9603 18.0106 31.1703 15.8806 31.3803C15.8106 31.3903 15.7406 31.4503 15.6806 31.4803V36.0403C19.8706 36.2703 22.5506 34.0403 23.4006 30.8103C24.2106 27.8103 23.6006 24.7603 23.7806 21.6803Z" fill="url(#paint0_linear_145_1949)"/>
<defs>
<linearGradient id="paint0_linear_145_1949" x1="3.74465" y1="21.0241" x2="43.8174" y2="21.0241" gradientUnits="userSpaceOnUse">
<stop offset="0.0344" stop-color="#273580"/>
<stop offset="0.2149" stop-color="#46317C"/>
<stop offset="0.6071" stop-color="#942673"/>
<stop offset="0.8615" stop-color="#CA1E6D"/>
</linearGradient>
</defs>
</svg>
