<svg width="263" height="32" viewBox="0 0 263 32" fill="none" xmlns="http://www.w3.org/2000/svg">
<path d="M217.646 15.9407C217.646 12.1725 217.646 8.38928 217.646 4.62106C217.646 3.60423 217.75 3.49956 218.724 3.49956C221.925 3.51451 225.141 3.42479 228.328 3.57433C231.899 3.75377 234.864 5.30891 237.062 8.20984C241.71 14.3407 240.102 26.3781 229.523 28.2921C228.609 28.4566 227.65 28.5014 226.72 28.5164C224.212 28.5463 221.689 28.5313 219.181 28.5313C217.646 28.5313 217.646 28.5313 217.646 27.0211C217.646 23.3126 217.646 19.6192 217.646 15.9407ZM220.464 25.7201C222.84 25.7201 225.127 25.765 227.413 25.7052C232.99 25.5706 236.635 21.8323 236.753 16.1949C236.871 10.8566 233.787 7.04349 228.564 6.38554C226.381 6.11638 224.153 6.26592 221.955 6.23601C221.468 6.22106 220.981 6.23601 220.464 6.23601C220.464 12.7706 220.464 19.1855 220.464 25.7201Z" fill="#030303"/>
<path d="M65.2395 3.31934C72.2475 3.31934 77.4113 8.70251 77.3966 15.9997C77.3966 23.282 72.2033 28.695 65.2248 28.695C58.2905 28.695 53.0234 23.2072 53.0234 15.9997C53.0382 8.74737 58.2758 3.31934 65.2395 3.31934ZM74.6229 15.9548C74.6081 7.90999 66.7887 3.85765 60.6216 7.31186C56.8447 9.42027 55.5611 12.9492 55.8562 17.1661C56.2398 22.6539 61.3298 26.7063 66.6854 25.7941C71.4951 24.9567 74.6376 21.0838 74.6229 15.9548Z" fill="#030303"/>
<path d="M26.2911 15.9702C26.3059 9.80947 30.0681 4.87489 35.704 3.60386C43.9071 1.74966 51.2839 8.25433 50.6348 16.7777C50.1921 22.5048 46.9611 26.7814 41.9596 28.202C33.8008 30.5198 26.2616 24.6431 26.2911 15.9702ZM38.4334 25.8693C43.8185 25.8693 47.8611 21.6674 47.8611 16.03C47.8758 10.3926 43.848 6.11601 38.4924 6.10106C33.0926 6.0861 28.991 10.3478 29.0058 16.0151C29.0205 21.6375 33.0483 25.8693 38.4334 25.8693Z" fill="#030303"/>
<path d="M185.424 19.9178C186.648 21.7421 187.843 23.5365 189.053 25.3458C189.496 26.0187 189.968 26.6766 190.396 27.3645C190.838 28.0673 190.617 28.4411 189.82 28.5308C188.566 28.6804 187.681 28.3813 186.973 27.1551C185.778 25.0916 184.361 23.1477 183.004 21.1738C182.842 20.9346 182.517 20.6654 182.266 20.6654C179.921 20.6505 177.575 20.6804 175.229 20.7103C175.155 20.7103 175.067 20.7402 174.875 20.7851C174.875 21.8168 174.875 22.8636 174.875 23.9252C174.875 25.1514 174.86 26.3776 174.89 27.6187C174.904 28.2467 174.668 28.5308 174.034 28.5458C172.16 28.6206 172.16 28.6206 172.16 26.7065C172.16 19.3794 172.16 12.0673 172.16 4.74019C172.16 3.52898 172.19 3.49907 173.355 3.49907C176.055 3.49907 178.77 3.46917 181.47 3.54393C182.473 3.57384 183.506 3.73832 184.48 4.02244C187.917 5.0243 189.968 7.59627 190.263 11.1701C190.602 15.0879 189.068 18.0336 185.837 19.6935C185.719 19.7383 185.601 19.8131 185.424 19.9178ZM174.919 17.9738C177.117 17.9738 179.242 17.9888 181.366 17.9738C181.839 17.9738 182.296 17.8991 182.768 17.8094C185.675 17.3308 187.386 15.4318 187.475 12.5458C187.593 9.18131 186.176 6.99814 183.107 6.54954C180.437 6.16075 177.678 6.25047 174.919 6.13085C174.919 10.1832 174.919 14.0262 174.919 17.9738Z" fill="#030303"/>
<path d="M144.703 17.1962C140.071 17.1962 135.556 17.1962 130.938 17.1962C130.923 17.5102 130.894 17.7944 130.894 18.0934C130.894 21.2037 130.894 24.299 130.894 27.4093C130.894 28.3962 130.776 28.5158 129.787 28.5158C129.566 28.5158 129.345 28.5009 129.123 28.5158C128.371 28.5757 128.105 28.2168 128.105 27.4691C128.12 23.3869 128.12 19.3046 128.12 15.2224C128.12 11.6934 128.12 8.1794 128.12 4.65043C128.12 3.55884 128.209 3.48407 129.227 3.46912C130.894 3.45417 130.894 3.45417 130.894 5.17379C130.894 8.22426 130.894 11.2598 130.894 14.3701C135.482 14.3701 140.026 14.3701 144.689 14.3701C144.689 14.0859 144.689 13.8018 144.689 13.5028C144.689 10.542 144.689 7.58127 144.689 4.60557C144.689 3.55884 144.777 3.46912 145.839 3.46912C146.031 3.46912 146.223 3.48407 146.415 3.46912C147.212 3.3794 147.477 3.75323 147.477 4.54575C147.462 12.1719 147.462 19.813 147.477 27.4392C147.477 28.2467 147.182 28.5757 146.4 28.5009C146.179 28.4859 145.957 28.4859 145.736 28.5009C144.939 28.5757 144.674 28.2018 144.674 27.4093C144.703 24.3289 144.689 21.2635 144.689 18.1831C144.703 17.899 144.703 17.6 144.703 17.1962Z" fill="#030303"/>
<path d="M246.844 6.23608C246.844 9.01739 246.844 11.6791 246.844 14.4454C247.168 14.4454 247.463 14.4454 247.758 14.4454C251.048 14.4454 254.324 14.4454 257.614 14.4454C258.617 14.4454 258.706 14.5501 258.72 15.537C258.72 15.6716 258.72 15.8211 258.72 15.9557C258.72 17.0922 258.661 17.152 257.555 17.152C254.294 17.152 251.034 17.152 247.773 17.152C247.478 17.152 247.183 17.152 246.829 17.152C246.829 20.008 246.829 22.7894 246.829 25.7202C247.139 25.7202 247.448 25.7202 247.758 25.7202C251.624 25.7202 255.489 25.7202 259.355 25.7202C260.506 25.7202 260.55 25.78 260.55 26.9613C260.55 27.1856 260.535 27.4099 260.55 27.6342C260.579 28.2323 260.314 28.5015 259.724 28.5015C254.752 28.5015 249.78 28.5015 244.808 28.5015C244.247 28.5015 243.996 28.2174 243.996 27.6791C243.996 27.4847 243.996 27.2903 243.996 27.0959C243.996 19.6641 243.996 12.2323 243.996 4.80057C243.996 3.51459 244.04 3.46973 245.294 3.46973C249.794 3.46973 254.294 3.46973 258.794 3.46973C260.063 3.46973 260.063 3.46973 260.063 4.80057C260.063 4.93515 260.048 5.08468 260.063 5.21926C260.151 5.98188 259.812 6.23608 259.06 6.23608C255.297 6.20618 251.55 6.22113 247.788 6.22113C247.537 6.23608 247.227 6.23608 246.844 6.23608Z" fill="#030303"/>
<path d="M19.0021 17.2118C14.3694 17.2118 9.82524 17.2118 5.1483 17.2118C5.1483 17.5108 5.1483 17.8099 5.1483 18.094C5.1483 21.1744 5.1483 24.2398 5.1483 27.3202C5.1483 28.4566 5.07454 28.5165 3.98276 28.5165C3.82047 28.5165 3.64342 28.5015 3.48113 28.5165C2.71394 28.5912 2.3746 28.2772 2.40411 27.4697C2.44837 26.2735 2.41886 25.0623 2.41886 23.866C2.41886 17.466 2.41886 11.066 2.41886 4.66599C2.41886 3.54449 2.46313 3.49963 3.59916 3.48468C3.73195 3.48468 3.87948 3.48468 4.01227 3.48468C5.08929 3.48468 5.1483 3.54449 5.1483 4.60617C5.1483 7.53702 5.1483 10.4679 5.1483 13.4137C5.1483 13.7127 5.1483 14.0267 5.1483 14.3856C9.76622 14.3856 14.3399 14.3856 19.0021 14.3856C19.0021 14.0716 19.0021 13.7725 19.0021 13.4735C19.0021 10.4828 19.0168 7.49216 18.9873 4.5015C18.9726 3.73889 19.2381 3.46973 19.9906 3.46973C21.7167 3.48468 21.7167 3.45477 21.7167 5.18935C21.7167 12.5464 21.7167 19.8884 21.7167 27.2454C21.7167 28.4865 21.6872 28.5165 20.4627 28.5165C19.0021 28.5165 19.0021 28.5165 19.0021 27.0361C19.0021 24.0753 19.0021 21.1146 19.0021 18.1538C19.0021 17.8548 19.0021 17.5557 19.0021 17.2118Z" fill="#030303"/>
<path d="M213.116 28.5158C212.349 28.7102 211.906 28.2915 211.582 27.4541C210.918 25.7345 210.136 24.0747 209.428 22.3849C209.251 21.9663 209.029 21.8018 208.572 21.8018C204.898 21.8167 201.225 21.8167 197.551 21.8018C197.049 21.8018 196.828 21.9812 196.636 22.4298C195.928 24.1494 195.161 25.8541 194.482 27.5887C194.202 28.3064 193.818 28.5457 193.066 28.5307C191.177 28.4859 191.118 28.4261 191.885 26.6466C195.087 19.2298 198.303 11.8279 201.461 4.39616C201.844 3.51392 202.39 3.46906 203.128 3.4541C203.866 3.43915 204.323 3.58868 204.647 4.36625C207.849 11.8728 211.095 19.3494 214.326 26.841C214.975 28.3513 214.872 28.5158 213.116 28.5158ZM198.097 19.0803C201.446 19.0803 204.692 19.0803 208.026 19.0803C206.374 15.2074 204.751 11.4242 203.039 7.43168C201.343 11.4392 199.734 15.2373 198.097 19.0803Z" fill="#030303"/>
<path d="M123.636 28.5158C122.766 28.77 122.353 28.1868 122.013 27.3345C121.364 25.6747 120.612 24.0597 119.933 22.4149C119.741 21.9663 119.505 21.7868 119.018 21.7868C115.344 21.8018 111.671 21.8018 107.997 21.7868C107.54 21.7868 107.318 21.9513 107.141 22.37C106.418 24.1495 105.637 25.899 104.914 27.6784C104.663 28.2915 104.323 28.5158 103.674 28.5158C101.609 28.5009 101.565 28.4709 102.405 26.527C105.578 19.17 108.779 11.813 111.907 4.42609C112.29 3.52889 112.836 3.45412 113.633 3.43917C114.386 3.42422 114.813 3.64851 115.138 4.39618C118.34 11.9027 121.585 19.3794 124.816 26.8709C125.451 28.3364 125.333 28.5158 123.636 28.5158ZM113.53 7.43169C111.818 11.4691 110.21 15.2672 108.573 19.0952C111.936 19.0952 115.182 19.0952 118.517 19.0952C116.864 15.2373 115.241 11.4392 113.53 7.43169Z" fill="#030303"/>
<path d="M84.7003 17.8987C85.0839 17.48 85.3348 17.2258 85.5708 16.9716C89.4658 12.695 93.3608 8.4333 97.2558 4.15666C97.8017 3.55853 99.6311 3.15479 100.295 3.57348C100.472 3.69311 100.561 4.20152 100.472 4.45573C100.354 4.76974 100.029 5.009 99.7934 5.27816C96.8722 8.47816 93.9804 11.6632 91.0297 14.9081C91.2215 15.1623 91.3838 15.4015 91.5756 15.6258C94.6296 19.409 97.6984 23.1922 100.738 26.9903C100.738 26.9903 100.738 26.9903 100.752 27.0053C101.166 27.5286 100.885 28.3062 100.251 28.4856C100.192 28.5006 100.133 28.5155 100.074 28.5305C98.9377 28.7697 98.2148 28.2165 97.5066 27.3342C94.9247 24.0595 92.2395 20.8595 89.5986 17.6445C89.4658 17.48 89.3035 17.3155 89.1117 17.1062C87.6659 18.6763 86.2642 20.2015 84.8774 21.7567C84.7299 21.9361 84.7003 22.2651 84.7003 22.5342C84.6856 24.209 84.6708 25.8838 84.7003 27.5585C84.7151 28.2763 84.4348 28.5454 83.7266 28.5604C81.9414 28.5754 81.9414 28.6053 81.9414 26.7959C81.9414 19.4688 81.9414 12.1567 81.9562 4.82956C81.9562 4.41087 82.148 3.6632 82.3397 3.6333C83.0184 3.49872 83.7561 3.58844 84.4495 3.69311C84.5676 3.70806 84.6708 4.27629 84.6708 4.59031C84.6856 8.67255 84.6856 12.7548 84.6856 16.8221C84.7004 17.0912 84.7003 17.3903 84.7003 17.8987Z" fill="#030303"/>
<path d="M158.44 6.23578C156.05 6.23578 153.793 6.23578 151.521 6.23578C150.473 6.23578 150.37 6.1311 150.37 5.09933C150.37 4.84512 150.37 4.59092 150.37 4.35166C150.355 3.76849 150.606 3.48438 151.211 3.48438C156.95 3.49933 162.704 3.48438 168.443 3.48438C169.004 3.48438 169.225 3.73858 169.24 4.29185C169.328 6.23578 169.343 6.23578 167.396 6.23578C165.36 6.23578 163.324 6.23578 161.184 6.23578C161.184 6.63952 161.184 6.96849 161.184 7.29746C161.184 13.9218 161.184 20.5461 161.169 27.1704C161.169 27.589 160.992 28.3517 160.801 28.3816C160.122 28.5161 159.399 28.4414 158.706 28.3367C158.573 28.3218 158.455 27.7535 158.455 27.4545C158.44 23.2676 158.44 19.0657 158.44 14.8788C158.44 12.3367 158.44 9.79466 158.44 7.2526C158.44 6.93858 158.44 6.63952 158.44 6.23578Z" fill="#030303"/>
</svg>
