<svg width="259" height="26" viewBox="0 0 259 26" fill="none" xmlns="http://www.w3.org/2000/svg">
<path d="M215.646 12.9402C215.646 9.17196 215.646 5.38879 215.646 1.62056C215.646 0.603738 215.75 0.499065 216.724 0.499065C219.925 0.514019 223.141 0.424299 226.328 0.573832C229.899 0.753271 232.864 2.30841 235.062 5.20935C239.71 11.3402 238.102 23.3776 227.523 25.2916C226.609 25.4561 225.65 25.5009 224.72 25.5159C222.212 25.5458 219.689 25.5308 217.181 25.5308C215.646 25.5308 215.646 25.5308 215.646 24.0206C215.646 20.3121 215.646 16.6187 215.646 12.9402ZM218.464 22.7196C220.84 22.7196 223.127 22.7645 225.413 22.7047C230.99 22.5701 234.635 18.8318 234.753 13.1944C234.871 7.85608 231.787 4.04299 226.564 3.38505C224.381 3.11589 222.153 3.26542 219.955 3.23551C219.468 3.22056 218.981 3.23551 218.464 3.23551C218.464 9.77009 218.464 16.185 218.464 22.7196Z" fill="white"/>
<path d="M63.2395 0.319626C70.2475 0.319626 75.4113 5.7028 75.3966 13C75.3966 20.2822 70.2033 25.6953 63.2248 25.6953C56.2905 25.6953 51.0234 20.2075 51.0234 13C51.0382 5.74766 56.2758 0.319626 63.2395 0.319626ZM72.6229 12.9551C72.6081 4.91028 64.7887 0.857944 58.6216 4.31215C54.8447 6.42056 53.5611 9.94953 53.8562 14.1664C54.2398 19.6542 59.3298 23.7065 64.6854 22.7944C69.4951 21.957 72.6376 18.0841 72.6229 12.9551Z" fill="white"/>
<path d="M24.2911 12.9701C24.3059 6.80935 28.0681 1.87477 33.704 0.60374C41.9071 -1.25047 49.2839 5.25421 48.6348 13.7776C48.1921 19.5047 44.9611 23.7813 39.9596 25.2019C31.8008 27.5196 24.2616 21.643 24.2911 12.9701ZM36.4334 22.8692C41.8185 22.8692 45.8611 18.6673 45.8611 13.0299C45.8758 7.39252 41.848 3.11589 36.4924 3.10094C31.0926 3.08598 26.991 7.34766 27.0058 13.015C27.0205 18.6374 31.0483 22.8692 36.4334 22.8692Z" fill="white"/>
<path d="M183.424 16.9178C184.648 18.7421 185.843 20.5365 187.053 22.3458C187.496 23.0187 187.968 23.6766 188.396 24.3645C188.838 25.0673 188.617 25.4411 187.82 25.5308C186.566 25.6804 185.681 25.3813 184.973 24.1551C183.778 22.0916 182.361 20.1477 181.004 18.1738C180.842 17.9346 180.517 17.6654 180.266 17.6654C177.921 17.6505 175.575 17.6804 173.229 17.7103C173.155 17.7103 173.067 17.7402 172.875 17.785C172.875 18.8168 172.875 19.8636 172.875 20.9252C172.875 22.1514 172.86 23.3776 172.89 24.6187C172.904 25.2467 172.668 25.5308 172.034 25.5458C170.16 25.6206 170.16 25.6206 170.16 23.7065C170.16 16.3794 170.16 9.06729 170.16 1.74019C170.16 0.528974 170.19 0.499068 171.355 0.499068C174.055 0.499068 176.77 0.469161 179.47 0.543928C180.473 0.573834 181.506 0.73832 182.48 1.02243C185.917 2.0243 187.968 4.59626 188.263 8.1701C188.602 12.0879 187.068 15.0336 183.837 16.6935C183.719 16.7383 183.601 16.8131 183.424 16.9178ZM172.919 14.9738C175.117 14.9738 177.242 14.9888 179.366 14.9738C179.839 14.9738 180.296 14.8991 180.768 14.8093C183.675 14.3308 185.386 12.4318 185.475 9.5458C185.593 6.18131 184.176 3.99813 181.107 3.54953C178.437 3.16075 175.678 3.25047 172.919 3.13084C172.919 7.18318 172.919 11.0262 172.919 14.9738Z" fill="white"/>
<path d="M142.703 14.1963C138.071 14.1963 133.556 14.1963 128.938 14.1963C128.923 14.5103 128.894 14.7944 128.894 15.0935C128.894 18.2037 128.894 21.2991 128.894 24.4093C128.894 25.3963 128.776 25.5159 127.787 25.5159C127.566 25.5159 127.345 25.5009 127.123 25.5159C126.371 25.5757 126.105 25.2168 126.105 24.4692C126.12 20.3869 126.12 16.3047 126.12 12.2224C126.12 8.69346 126.12 5.17944 126.12 1.65047C126.12 0.558881 126.209 0.484115 127.227 0.469161C128.894 0.454208 128.894 0.454208 128.894 2.17383C128.894 5.2243 128.894 8.25981 128.894 11.3701C133.482 11.3701 138.026 11.3701 142.689 11.3701C142.689 11.086 142.689 10.8019 142.689 10.5028C142.689 7.54206 142.689 4.58131 142.689 1.60561C142.689 0.558881 142.777 0.469161 143.839 0.469161C144.031 0.469161 144.223 0.484115 144.415 0.469161C145.212 0.379442 145.477 0.753273 145.477 1.5458C145.462 9.17196 145.462 16.8131 145.477 24.4393C145.477 25.2467 145.182 25.5757 144.4 25.5009C144.179 25.486 143.957 25.486 143.736 25.5009C142.939 25.5757 142.674 25.2019 142.674 24.4093C142.703 21.329 142.689 18.2636 142.689 15.1832C142.703 14.8991 142.703 14.6 142.703 14.1963Z" fill="white"/>
<path d="M244.844 3.23552C244.844 6.01683 244.844 8.67851 244.844 11.4449C245.168 11.4449 245.463 11.4449 245.758 11.4449C249.048 11.4449 252.324 11.4449 255.614 11.4449C256.617 11.4449 256.706 11.5495 256.72 12.5365C256.72 12.671 256.72 12.8206 256.72 12.9551C256.72 14.0916 256.661 14.1514 255.555 14.1514C252.294 14.1514 249.034 14.1514 245.773 14.1514C245.478 14.1514 245.183 14.1514 244.829 14.1514C244.829 17.0075 244.829 19.7888 244.829 22.7196C245.139 22.7196 245.448 22.7196 245.758 22.7196C249.624 22.7196 253.489 22.7196 257.355 22.7196C258.506 22.7196 258.55 22.7794 258.55 23.9608C258.55 24.1851 258.535 24.4094 258.55 24.6336C258.579 25.2318 258.314 25.5009 257.724 25.5009C252.752 25.5009 247.78 25.5009 242.808 25.5009C242.247 25.5009 241.996 25.2168 241.996 24.6785C241.996 24.4841 241.996 24.2897 241.996 24.0953C241.996 16.6636 241.996 9.23178 241.996 1.8C241.996 0.514021 242.04 0.469162 243.294 0.469162C247.794 0.469162 252.294 0.469162 256.794 0.469162C258.063 0.469162 258.063 0.469162 258.063 1.8C258.063 1.93458 258.048 2.08412 258.063 2.21869C258.151 2.98131 257.812 3.23552 257.06 3.23552C253.297 3.20561 249.55 3.22056 245.788 3.22056C245.537 3.23552 245.227 3.23552 244.844 3.23552Z" fill="white"/>
<path d="M17.0021 14.2112C12.3694 14.2112 7.82524 14.2112 3.1483 14.2112C3.1483 14.5103 3.1483 14.8093 3.1483 15.0935C3.1483 18.1738 3.1483 21.2393 3.1483 24.3196C3.1483 25.4561 3.07454 25.5159 1.98276 25.5159C1.82047 25.5159 1.64342 25.5009 1.48113 25.5159C0.713939 25.5907 0.374603 25.2766 0.40411 24.4692C0.448372 23.2729 0.418864 22.0617 0.418864 20.8654C0.418864 14.4654 0.418864 8.06542 0.418864 1.66542C0.418864 0.543928 0.463125 0.499068 1.59916 0.484115C1.73195 0.484115 1.87948 0.484115 2.01227 0.484115C3.08929 0.484115 3.1483 0.543928 3.1483 1.60561C3.1483 4.53645 3.1483 7.46729 3.1483 10.4131C3.1483 10.7122 3.1483 11.0262 3.1483 11.385C7.76622 11.385 12.3399 11.385 17.0021 11.385C17.0021 11.071 17.0021 10.772 17.0021 10.4729C17.0021 7.48224 17.0168 4.49159 16.9873 1.50094C16.9726 0.738321 17.2381 0.469162 17.9906 0.469162C19.7167 0.484115 19.7167 0.454209 19.7167 2.18879C19.7167 9.5458 19.7167 16.8879 19.7167 24.2449C19.7167 25.486 19.6872 25.5159 18.4627 25.5159C17.0021 25.5159 17.0021 25.5159 17.0021 24.0355C17.0021 21.0748 17.0021 18.114 17.0021 15.1533C17.0021 14.8542 17.0021 14.5551 17.0021 14.2112Z" fill="white"/>
<path d="M211.116 25.5159C210.349 25.7103 209.906 25.2916 209.582 24.4542C208.918 22.7346 208.136 21.0748 207.428 19.385C207.251 18.9664 207.029 18.8019 206.572 18.8019C202.898 18.8168 199.225 18.8168 195.551 18.8019C195.049 18.8019 194.828 18.9813 194.636 19.4299C193.928 21.1495 193.161 22.8542 192.482 24.5888C192.202 25.3065 191.818 25.5458 191.066 25.5308C189.177 25.486 189.118 25.4262 189.885 23.6467C193.087 16.2299 196.303 8.82804 199.461 1.39626C199.844 0.514021 200.39 0.469161 201.128 0.454208C201.866 0.439254 202.323 0.588787 202.647 1.36636C205.849 8.8729 209.095 16.3495 212.326 23.8411C212.975 25.3514 212.872 25.5159 211.116 25.5159ZM196.097 16.0804C199.446 16.0804 202.692 16.0804 206.026 16.0804C204.374 12.2075 202.751 8.4243 201.039 4.43178C199.343 8.43925 197.734 12.2374 196.097 16.0804Z" fill="white"/>
<path d="M121.636 25.5159C120.766 25.7701 120.353 25.1869 120.013 24.3346C119.364 22.6748 118.612 21.0598 117.933 19.415C117.741 18.9664 117.505 18.7869 117.018 18.7869C113.344 18.8019 109.671 18.8019 105.997 18.7869C105.54 18.7869 105.318 18.9514 105.141 19.3701C104.418 21.1495 103.637 22.8991 102.914 24.6785C102.663 25.2916 102.323 25.5159 101.674 25.5159C99.6088 25.5009 99.5645 25.471 100.405 23.5271C103.578 16.1701 106.779 8.81309 109.907 1.42617C110.29 0.528973 110.836 0.454206 111.633 0.439253C112.386 0.4243 112.813 0.648599 113.138 1.39626C116.34 8.90281 119.585 16.3794 122.816 23.871C123.451 25.3365 123.333 25.5159 121.636 25.5159ZM111.53 4.43178C109.818 8.46916 108.21 12.2673 106.573 16.0953C109.936 16.0953 113.182 16.0953 116.517 16.0953C114.864 12.2374 113.241 8.43925 111.53 4.43178Z" fill="white"/>
<path d="M82.7003 14.8991C83.0839 14.4804 83.3348 14.2262 83.5708 13.972C87.4658 9.69533 91.3608 5.43365 95.2558 1.15701C95.8017 0.55888 97.6311 0.155142 98.295 0.573833C98.4721 0.69346 98.5606 1.20187 98.4721 1.45608C98.3541 1.7701 98.0295 2.00935 97.7934 2.27851C94.8722 5.47851 91.9804 8.66355 89.0297 11.9084C89.2215 12.1626 89.3838 12.4019 89.5756 12.6262C92.6296 16.4093 95.6984 20.1925 98.7377 23.9907C98.7377 23.9907 98.7377 23.9907 98.7524 24.0056C99.1655 24.529 98.8852 25.3065 98.2508 25.486C98.1918 25.5009 98.1328 25.5159 98.0737 25.5308C96.9377 25.7701 96.2148 25.2168 95.5066 24.3346C92.9247 21.0598 90.2395 17.8598 87.5986 14.6449C87.4658 14.4804 87.3035 14.3159 87.1117 14.1065C85.6659 15.6766 84.2642 17.2019 82.8774 18.757C82.7299 18.9365 82.7003 19.2654 82.7003 19.5346C82.6856 21.2093 82.6708 22.8841 82.7003 24.5589C82.7151 25.2766 82.4348 25.5458 81.7266 25.5608C79.9414 25.5757 79.9414 25.6056 79.9414 23.7963C79.9414 16.4692 79.9414 9.15701 79.9562 1.82991C79.9562 1.41122 80.148 0.663553 80.3397 0.633646C81.0184 0.499067 81.7561 0.588787 82.4495 0.69346C82.5676 0.708413 82.6708 1.27664 82.6708 1.59066C82.6856 5.6729 82.6856 9.75514 82.6856 13.8224C82.7004 14.0916 82.7003 14.3907 82.7003 14.8991Z" fill="white"/>
<path d="M156.44 3.23551C154.05 3.23551 151.793 3.23551 149.521 3.23551C148.473 3.23551 148.37 3.13084 148.37 2.09906C148.37 1.84486 148.37 1.59065 148.37 1.3514C148.355 0.768224 148.606 0.484112 149.211 0.484112C154.95 0.499065 160.704 0.484112 166.443 0.484112C167.004 0.484112 167.225 0.738318 167.24 1.29159C167.328 3.23551 167.343 3.23551 165.396 3.23551C163.36 3.23551 161.324 3.23551 159.184 3.23551C159.184 3.63925 159.184 3.96822 159.184 4.2972C159.184 10.9215 159.184 17.5458 159.169 24.1701C159.169 24.5888 158.992 25.3514 158.801 25.3813C158.122 25.5159 157.399 25.4411 156.706 25.3364C156.573 25.3215 156.455 24.7533 156.455 24.4542C156.44 20.2673 156.44 16.0654 156.44 11.8785C156.44 9.33645 156.44 6.79439 156.44 4.25234C156.44 3.93832 156.44 3.63925 156.44 3.23551Z" fill="white"/>
</svg>
