<svg width="20" height="20" viewBox="0 0 20 20" fill="none" xmlns="http://www.w3.org/2000/svg">
<path fill-rule="evenodd" clip-rule="evenodd" d="M1.22113 0.0527925C0.600859 0.203621 0.132697 0.715478 0.0214305 1.36437C-0.0371924 1.70632 0.0308492 3.11197 0.147939 3.97833C0.629467 7.54006 2.00226 10.6526 4.33143 13.4634C4.7487 13.967 6.0327 15.2511 6.53627 15.6684C9.34689 17.9978 12.4591 19.3706 16.0206 19.8522C16.8933 19.9702 18.2922 20.0374 18.6388 19.978C19.3013 19.8644 19.8193 19.3729 19.9561 18.7282C19.9853 18.5905 20 17.8624 20 16.5574C20 14.4648 19.9918 14.358 19.802 13.986C19.6945 13.7752 19.437 13.4998 19.2389 13.3837C18.9408 13.209 18.7504 13.1664 18.1045 13.1295C16.89 13.0601 16.1122 12.9357 15.1354 12.6544C14.6373 12.511 14.558 12.4986 14.2324 12.5128C13.9176 12.5266 13.8449 12.5444 13.6169 12.6637C13.4746 12.7381 12.8308 13.1991 12.1861 13.6881C11.5413 14.1772 11.0012 14.5773 10.9857 14.5773C10.9341 14.5773 10.177 14.1362 9.72145 13.8407C8.0312 12.7443 6.74434 11.364 5.69468 9.52167C5.45714 9.10475 5.41599 9.00747 5.45245 8.94908C5.4766 8.91038 5.88732 8.36253 6.36513 7.73158C6.84295 7.10067 7.27418 6.51346 7.32342 6.42669C7.37266 6.33992 7.44161 6.157 7.47666 6.02017C7.55713 5.70616 7.53364 5.5003 7.33831 4.80607C7.06732 3.84298 6.93362 2.9948 6.8886 1.95287C6.86253 1.34959 6.80187 1.05653 6.64914 0.795915C6.43102 0.42367 5.99886 0.1174 5.57962 0.0378621C5.27033 -0.0208045 1.4702 -0.00778917 1.22113 0.0527925Z" fill="url(#paint0_linear_129_13)"/>
<defs>
<linearGradient id="paint0_linear_129_13" x1="-3" y1="-3.5" x2="21" y2="16" gradientUnits="userSpaceOnUse">
<stop stop-color="#FF0000"/>
<stop offset="0.0310964" stop-color="#FF3115"/>
<stop offset="0.110253" stop-color="#FE5424"/>
<stop offset="0.46338" stop-color="#FE8438"/>
<stop offset="0.818928" stop-color="#FDA446"/>
<stop offset="0.925155" stop-color="#FDB74E"/>
<stop offset="1" stop-color="#FDCF58"/>
</linearGradient>
</defs>
</svg>
