<svg width="35" height="35" viewBox="0 0 35 35" fill="none" xmlns="http://www.w3.org/2000/svg">
<path fill-rule="evenodd" clip-rule="evenodd" d="M15.9905 0.0683377C13.9178 0.251513 11.442 0.943284 9.65777 1.83777C2.79789 5.27708 -1.05168 12.9247 0.251806 20.5238C0.837532 23.938 2.44954 27.0655 4.95622 29.6505C6.51973 31.263 7.9272 32.2889 9.88571 33.244C14.0092 35.2549 18.6609 35.5478 23.0921 34.0757C31.4064 31.3136 36.4229 22.5959 34.6416 14.0047C33.9656 10.7439 32.3711 7.74308 30.0134 5.29418C26.3791 1.51917 21.241 -0.395538 15.9905 0.0683377ZM18.7651 2.75634C20.7758 2.93429 22.3084 3.36777 24.1163 4.26983C25.6572 5.03874 26.6674 5.76833 27.9055 7.00668C32.4202 11.5221 33.574 18.0987 30.8606 23.8505C28.9072 27.9913 25.1175 30.9936 20.6198 31.9637C15.8054 33.0022 10.8815 31.6187 7.33045 28.2298C2.4695 23.5909 1.30924 16.5582 4.42001 10.5887C5.11899 9.24731 5.88508 8.22397 7.10444 7.00264C8.76487 5.33957 10.5466 4.22713 12.7076 3.50454C14.7847 2.8099 16.6994 2.57342 18.7651 2.75634ZM16.9547 8.93124C16.093 9.32235 15.9007 10.4548 16.5854 11.1062C17.0366 11.5354 17.517 11.6085 18.0736 11.3324C19.2939 10.727 18.9683 8.95187 17.6177 8.84643C17.3835 8.82816 17.1028 8.86403 16.9547 8.93124ZM16.8317 13.0494C16.6786 13.1537 16.4741 13.3459 16.3772 13.4767C16.2025 13.7126 16.201 13.7614 16.201 19.5132C16.201 25.265 16.2025 25.3138 16.3772 25.5497C16.9898 26.3766 18.0226 26.3766 18.6352 25.5497C18.8099 25.3138 18.8114 25.2648 18.8114 19.5215V13.7311L18.5687 13.4129C18.1406 12.8516 17.3618 12.6886 16.8317 13.0494Z" fill="#030303"/>
</svg>
