<svg width="68" height="68" viewBox="0 0 68 68" fill="none" xmlns="http://www.w3.org/2000/svg">
<circle cx="34" cy="34" r="34" fill="white"/>
<path fill-rule="evenodd" clip-rule="evenodd" d="M30.7785 25.1541C30.1958 25.4345 29.9293 26.0357 30.1172 26.646C30.1854 26.8673 30.296 27.0265 30.5382 27.2517C30.7189 27.4198 32.6079 28.9951 34.7361 30.7525C36.8644 32.5099 38.6041 33.9662 38.6023 33.9887C38.6005 34.0113 36.8778 35.448 34.7741 37.1814C29.9457 41.16 30.1777 40.9552 30.0583 41.3429C29.7239 42.4293 30.8926 43.3787 31.9118 42.8488C32.2781 42.6583 41.5398 34.9825 41.7524 34.6931C42.1457 34.158 42.066 33.5193 41.5447 33.0296C41.3812 32.8759 39.1731 31.0373 36.6379 28.9439C33.1799 26.0884 31.967 25.1199 31.7823 25.0664C31.4046 24.9571 31.1396 24.9803 30.7785 25.1541Z" fill="#C04A48"/>
</svg>
