<svg width="25" height="35" viewBox="0 0 25 35" fill="none" xmlns="http://www.w3.org/2000/svg">
<path fill-rule="evenodd" clip-rule="evenodd" d="M11.1164 0.0757688C8.32342 0.387514 5.68289 1.64841 3.67332 3.63002C0.331252 6.92552 -0.847386 11.7811 0.622782 16.1972C1.09133 17.6046 1.50919 18.2912 7.07998 26.807C10.0278 31.3132 12.47 35 12.5071 35C12.5443 35 14.9863 31.3132 17.9338 26.807C23.5222 18.2636 23.9247 17.6015 24.3938 16.1801C25.9604 11.434 24.4202 6.07366 20.5854 2.92529C17.9147 0.732785 14.483 -0.299943 11.1164 0.0757688ZM14.0713 6.37053C16.3065 6.95213 18.0333 8.69542 18.6046 10.9469C18.7842 11.6551 18.7638 13.1609 18.5647 13.8833C17.7406 16.8743 14.7773 18.8494 11.7167 18.4477C9.20302 18.1178 7.12086 16.3139 6.44846 13.8833C6.23118 13.098 6.23097 11.585 6.44797 10.7981C7.09256 8.46094 8.92789 6.77298 11.3689 6.27235C12.0386 6.13502 13.3493 6.1826 14.0713 6.37053Z" fill="#C04A48"/>
</svg>
