<svg width="42" height="40" viewBox="0 0 42 40" fill="none" xmlns="http://www.w3.org/2000/svg">
<path fill-rule="evenodd" clip-rule="evenodd" d="M6.31018 2.00514C3.2706 3.08768 0.689611 4.0436 0.574638 4.12947C0.459584 4.21533 0.290521 4.38601 0.198834 4.50883L0.0321147 4.73214L0.0113355 22.1633C-0.0116267 41.4876 -0.0541553 39.9721 0.510198 39.9721C0.743782 39.9721 10.9104 36.4211 11.8454 36.0129C12.0281 35.9331 12.2828 35.7299 12.4113 35.5614L12.6452 35.2549V17.813C12.6452 0.774634 12.6416 0.367216 12.4911 0.200983C12.3959 0.095793 12.2416 0.0320001 12.0869 0.0338597C11.9493 0.0355576 9.34977 0.922595 6.31018 2.00514ZM14.5173 0.178667C14.3937 0.315309 14.3835 1.65245 14.3835 17.7749C14.3835 35.1328 14.3843 35.2245 14.5467 35.4871C14.6363 35.6323 14.8008 35.8107 14.912 35.8836C15.2349 36.0952 26.202 39.9714 26.4787 39.9718C26.6188 39.972 26.7878 39.9071 26.8628 39.8243C26.9864 39.6876 26.9966 38.3505 26.9966 22.2281C26.9966 4.87016 26.9958 4.77839 26.8334 4.51586C26.7437 4.37065 26.5793 4.19221 26.468 4.11936C26.1452 3.90777 15.1781 0.031515 14.9014 0.0311107C14.7613 0.030949 14.5923 0.095874 14.5173 0.178667ZM35.0414 2.00263C32.0175 3.08193 29.4631 4.00802 29.3648 4.06074C29.2666 4.11338 29.0847 4.28955 28.9606 4.45231L28.7349 4.74807V22.1899C28.7349 39.2283 28.7385 39.6357 28.8889 39.8019C28.9769 39.8992 29.1418 39.9721 29.2735 39.9721C29.5687 39.9721 40.4476 36.1103 40.7687 35.8916C40.9013 35.8013 41.0858 35.6247 41.1788 35.4991L41.348 35.2708L41.3687 17.8396C41.3919 -1.57431 41.4393 0.0260978 40.8408 0.0355576C40.6623 0.0383875 38.2984 0.840206 35.0414 2.00263Z" fill="#030303"/>
</svg>
