<svg width="14" height="14" viewBox="0 0 14 14" fill="none" xmlns="http://www.w3.org/2000/svg">
<path fill-rule="evenodd" clip-rule="evenodd" d="M6.33595 0.0169979C5.02639 0.153191 3.83477 0.620813 2.77076 1.41614C2.42494 1.67466 1.67997 2.41933 1.42552 2.76086C0.751513 3.66559 0.314525 4.64984 0.122301 5.69621C-0.242134 7.67982 0.212404 9.61412 1.42552 11.2425C1.67997 11.584 2.42494 12.3287 2.77076 12.5872C3.76851 13.333 4.87414 13.7848 6.144 13.9657C6.46792 14.0119 7.54436 14.0113 7.88254 13.9648C9.46712 13.7469 10.8863 13.0441 11.9656 11.9426C12.3095 11.5917 12.3914 11.4984 12.6113 11.2072C13.3215 10.2669 13.7877 9.11628 13.9657 7.8647C14.0115 7.54234 14.0115 6.46085 13.9656 6.13865C13.8082 5.03177 13.4176 3.98307 12.8431 3.12492C11.7177 1.44375 9.98739 0.351385 7.97836 0.0537106C7.64251 0.00392922 6.67046 -0.0177696 6.33595 0.0169979ZM7.26236 2.57344C7.32114 2.60566 7.39679 2.68084 7.43348 2.74347L7.49924 2.85577V4.8053V6.75485L8.70299 7.71856C9.60711 8.44238 9.91848 8.70668 9.95397 8.78033C9.97995 8.83427 10.0015 8.94271 10.0018 9.02129C10.0029 9.28444 9.78712 9.49486 9.51613 9.49486C9.44286 9.49486 9.34411 9.47592 9.29666 9.45277C9.17455 9.39321 6.65155 7.36048 6.58351 7.2668C6.5281 7.19056 6.52719 7.15867 6.51997 5.02481L6.51263 2.86015L6.57368 2.75144C6.67011 2.57977 6.88752 2.47168 7.07487 2.50226C7.12005 2.50966 7.20443 2.54168 7.26236 2.57344Z" fill="white"/>
</svg>
