<svg width="71" height="16" viewBox="0 0 71 16" fill="none" xmlns="http://www.w3.org/2000/svg">
<path fill-rule="evenodd" clip-rule="evenodd" d="M24.6149 0.0967244C23.0444 0.376935 21.6548 0.957622 20.6423 1.75683C18.5834 3.38186 17.5132 6.08061 17.8223 8.86758C18.0063 10.5267 18.4372 11.6828 19.3176 12.8795C20.3471 14.2792 21.8743 15.2422 23.8585 15.743C24.6468 15.942 24.8682 15.962 26.3266 15.9654C27.7304 15.9687 28.023 15.9459 28.6907 15.7813C31.3124 15.1349 33.2204 13.6491 34.1844 11.5032C34.7272 10.2947 34.8505 9.64563 34.8505 7.99643C34.8505 6.75277 34.8214 6.42235 34.6578 5.80919C33.8912 2.93546 31.7714 0.941264 28.7081 0.211966C27.8003 -0.00419387 25.5375 -0.0678374 24.6149 0.0967244ZM42.9073 0.100956C39.6179 0.64681 37.2439 2.67364 36.3959 5.66001C36.1961 6.36359 36.1706 6.61051 36.1636 7.91504C36.1574 9.07829 36.1891 9.51411 36.3174 10.0311C37.2857 13.9302 40.6202 16.1777 45.1566 15.989C48.6763 15.8425 51.4362 14.1157 52.5712 11.3498C53.7454 8.4884 53.3193 5.11212 51.5008 2.86913C50.5137 1.65152 48.8999 0.681969 47.154 0.257705C46.0643 -0.00712374 44.0148 -0.082731 42.9073 0.100956ZM0.21399 0.666668L0 0.867772V2.61227C0 4.20841 0.0141159 4.37305 0.165494 4.54885L0.330987 4.741L4.51189 4.78169L8.69279 4.82238L4.5461 8.07781C2.26538 9.8683 0.319296 11.4365 0.221351 11.5627C0.0580224 11.7734 0.0411353 11.9283 0.0168005 13.4404C-0.00788065 14.9787 0.00173201 15.1016 0.160731 15.2862L0.331074 15.4839H8.01055H15.69L15.8555 15.2918C16.007 15.116 16.0211 14.9517 16.0211 13.3679C16.0211 11.7843 16.007 11.6197 15.8556 11.444L15.6901 11.2519L11.5163 11.2112L7.34251 11.1705L11.487 7.92741C13.9815 5.97538 15.7088 4.56602 15.8258 4.38713C16.0099 4.1057 16.0202 4.00511 16.0207 2.49158C16.0211 1.03876 16.006 0.875748 15.8556 0.701095L15.69 0.508943L8.05896 0.487294L0.427893 0.465646L0.21399 0.666668ZM55.4468 0.522534C54.9733 0.615802 54.9913 0.320454 54.9913 8.00554C54.9913 14.8683 54.9967 15.1059 55.1568 15.2918C55.3217 15.4832 55.3299 15.4839 57.2261 15.4839C58.9766 15.4839 59.1445 15.4715 59.3122 15.3289C59.4928 15.1754 59.4946 15.1358 59.4946 11.2799C59.4946 9.13827 59.5272 7.38603 59.5672 7.38603C59.6072 7.38603 61.2103 9.14559 63.1296 11.2962C65.1028 13.5071 66.7366 15.2667 66.8891 15.3451C67.1086 15.4581 67.4502 15.4889 68.7259 15.5105C70.573 15.5419 70.8806 15.4749 70.9675 15.0221C70.996 14.8733 71.0081 11.6122 70.9943 7.77546C70.9706 1.20878 70.9601 0.791026 70.8147 0.654216C70.6793 0.526766 70.4557 0.505769 68.9961 0.483388C67.2353 0.456368 66.9001 0.48233 66.6325 0.666099C66.4732 0.775562 66.464 0.951681 66.4226 4.70901L66.3793 8.63742L64.3145 6.32297C63.1789 5.05002 61.5929 3.2737 60.7901 2.37552C59.9873 1.47735 59.2213 0.690921 59.0878 0.627929C58.9092 0.543613 58.4217 0.509513 57.243 0.498851C56.3618 0.490875 55.5535 0.501537 55.4468 0.522534ZM27.3782 4.32943C29.2633 4.70494 30.3451 6.04195 30.3451 7.99643C30.3451 9.24057 29.8842 10.2917 29.0606 10.9259C27.5645 12.0781 24.9429 12.0392 23.5699 10.8445C22.7259 10.1102 22.3429 9.2212 22.3429 7.99643C22.3429 6.77165 22.7259 5.88268 23.5699 5.14833C24.491 4.34693 25.9216 4.03929 27.3782 4.32943ZM46.2265 4.45989C47.7651 4.95748 48.6695 6.2643 48.6695 7.99024C48.6695 10.1695 47.3273 11.574 45.0732 11.7533C42.7023 11.9418 40.9642 10.6662 40.6847 8.53243C40.5178 7.25907 40.9093 6.04431 41.7373 5.2661C42.5279 4.52321 43.5673 4.18912 44.9024 4.24886C45.3879 4.27059 45.8872 4.35018 46.2265 4.45989Z" fill="url(#paint0_linear_164_1931)"/>
<defs>
<linearGradient id="paint0_linear_164_1931" x1="3.37028e-07" y1="7.9758" x2="71.0124" y2="7.9758" gradientUnits="userSpaceOnUse">
<stop stop-color="#3D3F54"/>
<stop offset="0.272106" stop-color="#403E65"/>
<stop offset="0.457319" stop-color="#4E3CA0"/>
<stop offset="0.638122" stop-color="#5B3AD1"/>
<stop offset="1" stop-color="#6339F5"/>
</linearGradient>
</defs>
</svg>
