<svg width="60" height="40" viewBox="0 0 60 40" fill="none" xmlns="http://www.w3.org/2000/svg">
<path fill-rule="evenodd" clip-rule="evenodd" d="M2.98307 0.119187C2.89453 0.185987 2.18711 1.08905 1.41105 2.126C0.420217 3.44995 0 4.08843 0 4.2699C0 4.45136 0.420217 5.08985 1.41105 6.4138C2.18711 7.45075 2.89453 8.35391 2.98307 8.42061C3.24445 8.61761 3.67554 8.56479 3.93662 8.30361C4.3549 7.88544 4.26781 7.62775 3.25076 6.27544L2.32663 5.04664H14.3313C23.9196 5.04664 26.3173 5.07111 26.2434 5.16801C26.1924 5.23481 25.7945 5.73376 25.359 6.277C24.9235 6.82013 24.5181 7.3723 24.4581 7.50386C24.2336 7.9969 24.8257 8.64363 25.3754 8.50566C25.7503 8.41158 28.7394 4.64788 28.7394 4.2699C28.7394 3.90056 25.751 0.128314 25.3858 0.0366585C24.8808 -0.0900474 24.2888 0.436874 24.4071 0.908065C24.4391 1.03564 24.8441 1.6148 25.3071 2.19522C25.7701 2.77555 26.1909 3.30509 26.2424 3.37179C26.3171 3.46869 23.9201 3.49316 14.3313 3.49316H2.32663L3.25076 2.26435C4.26781 0.912046 4.3549 0.654362 3.93662 0.236184C3.67554 -0.0249953 3.24445 -0.0778139 2.98307 0.119187ZM0.917525 10.814C0.526533 10.9851 0.11855 11.4812 0.0488374 11.8702C0.0180591 12.0423 0.00534022 18.2202 0.0206809 25.5989C0.0484494 38.9759 0.0491289 39.0157 0.248751 39.283C0.358855 39.4305 0.569545 39.6411 0.717029 39.7512C0.984811 39.9512 1.0019 39.9515 14.4668 39.9515C27.9317 39.9515 27.9488 39.9512 28.2166 39.7512C28.3641 39.6411 28.5748 39.4305 28.6849 39.283C28.8849 39.0151 28.8851 39 28.8851 25.339C28.8851 11.678 28.8849 11.6629 28.6849 11.395C28.5748 11.2476 28.3641 11.0369 28.2166 10.9268C27.9492 10.727 27.9143 10.7265 14.5811 10.7056C3.61612 10.6883 1.16045 10.7078 0.917525 10.814ZM33.5136 12.8151C32.1027 13.9368 31.5402 14.4419 31.4932 14.6289C31.357 15.1713 31.9614 15.7289 32.474 15.5339C32.6155 15.4802 33.1767 15.0791 33.721 14.6427C34.2653 14.2063 34.7653 13.8076 34.832 13.7566C34.9289 13.6827 34.9534 16.0804 34.9534 25.6687V37.6734L33.7246 36.7492C32.3722 35.7322 32.1146 35.6451 31.6964 36.0634C31.4352 36.3245 31.3824 36.7556 31.5794 37.0169C31.6462 37.1055 32.5492 37.8129 33.5862 38.589C34.9102 39.5798 35.5486 40 35.7301 40C35.9116 40 36.55 39.5798 37.874 38.589C38.911 37.8129 39.8141 37.1055 39.8808 37.0169C40.0778 36.7556 40.025 36.3245 39.7638 36.0634C39.3456 35.6451 39.088 35.7322 37.7356 36.7492L36.5068 37.6734V25.6687C36.5068 16.0804 36.5313 13.6827 36.6282 13.7566C36.695 13.8076 37.1949 14.2063 37.7392 14.6427C38.2835 15.0791 38.8447 15.4802 38.9862 15.5339C39.5013 15.7298 40.1031 15.1712 39.966 14.6246C39.8707 14.2455 36.1192 11.2606 35.7378 11.2606C35.5367 11.2606 34.9766 11.652 33.5136 12.8151ZM27.3801 25.339V38.4465H14.4668H1.55348V25.339V12.2315H14.4668H27.3801V25.339Z" fill="white"/>
<circle cx="47.5" cy="20.5" r="12.5" fill="#C04A48"/>
<path d="M52 17L45.8125 24L43 20.8182" stroke="white" stroke-width="2" stroke-linecap="round" stroke-linejoin="round"/>
</svg>
