<svg width="60" height="40" viewBox="0 0 60 40" fill="none" xmlns="http://www.w3.org/2000/svg">
<path fill-rule="evenodd" clip-rule="evenodd" d="M9.62196 0.0863506C9.18988 0.188931 8.66297 0.573936 8.39022 0.986549L8.14709 1.35409L8.12294 6.31524L8.09879 11.2765L5.9198 11.3052C3.78794 11.3335 3.73031 11.339 3.25611 11.5625C2.56758 11.8871 2.24768 12.1894 1.93933 12.8071L1.66984 13.3468V23.6084V33.8699H1.14523C0.0523825 33.8699 -0.0383872 34.0407 0.00990572 36.008C0.0439223 37.397 0.0537044 37.4607 0.322047 38.0332C0.674286 38.7847 1.25054 39.3624 2.00463 39.72L2.59516 40H20H37.4048L37.9954 39.72C38.7495 39.3624 39.3257 38.7847 39.678 38.0332C39.9463 37.4607 39.9561 37.397 39.9901 36.008C40.0384 34.0407 39.9476 33.8699 38.8548 33.8699H38.3302L38.3282 23.6163C38.3264 13.5968 38.3223 13.354 38.1522 12.9789C37.8556 12.3246 37.4807 11.9341 36.8513 11.6238L36.2636 11.3341L34.0803 11.3052L31.897 11.2764V9.05455V6.83263L28.4795 3.41636L25.0619 0L17.4858 0.00899663C13.3189 0.0140242 9.78014 0.0487762 9.62196 0.0863506ZM24.23 4.36604C24.23 7.29147 24.2368 7.41583 24.4063 7.58545C24.5758 7.75506 24.7 7.76185 27.6239 7.76185H30.6653L30.6422 18.0893L30.6192 28.4166L30.3719 28.6295L30.1246 28.8423H20H9.87541L9.62813 28.6295L9.38085 28.4166V15.0827V1.7488L9.62813 1.53588L9.87541 1.32304H17.0527H24.23V4.36604ZM27.5788 4.36604L29.6484 6.43881H27.5561H25.4638V4.36604C25.4638 3.22602 25.474 2.29327 25.4865 2.29327C25.499 2.29327 26.4406 3.22602 27.5788 4.36604ZM8.10302 13.3133V15.3473H6.86926L5.6355 24.6086V33.8699H3.65267H2.9036V23.8561C2.9036 13.123 2.88836 13.5148 3.32555 13.0232C3.64888 12.6597 3.91432 12.6201 6.0541 12.6164L8.10302 12.613V13.3133ZM36.4512 12.8387C36.588 12.9386 36.789 13.1951 36.8981 13.4086L37.0964 13.797V23.8335V33.8699H36.3473H35.5983V24.1372L35.413 14.2364C35.5983 14.2364 33.5624 14.0409 33.5624 14.0409L31.897 14.0136V13.3089V12.6043L34.0498 12.6306C36.0608 12.6553 36.219 12.6691 36.4512 12.8387ZM8.1039 21.9405L8.10478 28.5336L8.3177 28.9914C8.57573 29.546 9.07611 29.9373 9.6981 30.0708C10.3116 30.2025 29.6884 30.2025 30.3019 30.0708C30.9113 29.94 31.3852 29.5709 31.6648 29.0095L31.897 28.5431V21.9452V14.0136L33.5624 14.0409L35.413 14.2364L35.5983 24.1372V33.8699H29.307C23.4885 33.8699 24.0946 33.7685 23.4906 34.8435L23.1208 35.5017H20H16.8792L16.5094 34.8435C15.9054 33.7685 16.5115 33.8699 10.693 33.8699H5.6355V24.6086L6.86926 15.3473H8.10302L8.1039 21.9405ZM15.5499 35.7883C15.7286 36.1157 15.9572 36.4729 16.058 36.5821L16.2413 36.7806H20H23.7587L23.942 36.5821C24.0428 36.4729 24.2714 36.1157 24.4501 35.7883L24.775 35.1929H31.7288H38.6827V36.0868C38.6827 36.5784 38.6342 37.144 38.575 37.3437C38.4333 37.821 37.7834 38.4714 37.3065 38.6133C36.7788 38.7701 3.22121 38.7701 2.69351 38.6133C2.21657 38.4714 1.56674 37.821 1.42503 37.3437C1.36581 37.144 1.31734 36.5784 1.31734 36.0868V35.1929H8.27117H15.225L15.5499 35.7883Z" fill="white"/>
<circle cx="47.5" cy="20.5" r="12.5" fill="#C04A48"/>
<path d="M52 17L45.8125 24L43 20.8182" stroke="white" stroke-width="2" stroke-linecap="round" stroke-linejoin="round"/>
</svg>
