<svg width="60" height="40" viewBox="0 0 60 40" fill="none" xmlns="http://www.w3.org/2000/svg">
<path fill-rule="evenodd" clip-rule="evenodd" d="M3.4801 0.0910092C3.2653 0.131439 2.80649 0.301136 2.46046 0.468096C1.27149 1.04194 0.316067 2.28409 0.0877552 3.55306C-0.0292517 4.20307 -0.0292517 35.8362 0.0877552 36.4862C0.360511 38.0023 1.54495 39.3139 3.12861 39.8537C3.54305 39.9949 4.1373 40.0001 20.0001 40.0001C35.8629 40.0001 36.4571 39.9949 36.8716 39.8537C37.9425 39.4886 38.7063 38.9052 39.2835 38.0111C39.7895 37.2274 39.9288 36.7184 39.9754 35.4839L40 33.1574L39.3903 33.1574H38.7462L38.7334 35.415C38.703 36.389 38.6928 36.44 38.4129 37.0071C38.0642 37.7133 37.6099 38.1578 36.8856 38.5013C36.3647 38.7484 36.3618 38.7488 34.8798 38.773L31.5989 38.7879L26.5227 31.9112L19.6496 25.0252L20.9761 23.6954L22.3026 22.3657L21.8539 21.9165L21.4054 21.4674L12.7512 30.1314L4.09708 38.7956L3.71411 38.7097C2.5481 38.4481 1.5926 37.4882 1.32992 36.3148L1.24634 35.9415L9.27538 27.9027L17.3043 19.8639L16.8554 19.4144L16.4064 18.9649L8.82953 26.5499L1.25259 34.135L1.27282 18.8857L1.29305 3.63642L1.54027 3.11404C1.8834 2.38896 2.32737 1.93406 3.03277 1.58497C3.59913 1.30477 3.65006 1.29453 4.62298 1.26411L5.62809 1.25123V0.616444V6.10352e-05L4.74936 0.00881959C4.26611 0.0135899 3.6949 0.0506573 3.4801 0.0910092ZM5.62809 0.625624V1.25123L21.7369 1.25128H34.0965L33.0554 2.29582L32.0143 3.34035L31.4242 3.11091C30.3579 2.69637 29.5458 2.55443 28.2015 2.5477C27.4593 2.54395 26.7792 2.5836 26.4441 2.65007C23.5571 3.22258 21.1223 5.02833 19.8251 7.55885C19.0669 9.03811 18.7933 10.1586 18.7974 11.7694C18.8004 12.9974 18.9339 13.58 19.5359 14.9938C20.7083 17.7472 23.7914 22.0005 27.2745 25.6699C27.7788 26.2012 27.8839 26.2762 28.1234 26.276C28.3629 26.2758 28.4679 26.2007 28.9702 25.6697C29.2856 25.3364 29.9761 24.5709 30.5047 23.9688C34.1265 19.8433 36.3936 16.338 37.2317 13.568C37.4213 12.9416 37.4448 12.7395 37.4454 11.7303C37.4462 10.4676 37.3006 9.64385 36.8888 8.58196L36.6596 7.99115L37.7029 6.9488L38.7462 5.90645V19.532V33.1574H39.3731L40 33.1574L39.9745 19.1007C39.9492 5.13203 39.948 5.03943 39.7841 4.30114C39.2297 1.80284 38.1509 0.451987 36.4186 0.0872556C36.1236 0.0250855 32.1797 6.10352e-05 22.691 6.10352e-05H5.62809V0.625624ZM36.6763 1.48143C37.4009 1.79713 37.9663 2.54184 38.316 3.64159L38.5317 4.31975L37.2865 5.56643L36.0414 6.81312L35.6032 6.24037C35.1034 5.58716 34.3087 4.80084 33.6443 4.30246L33.1899 3.96151L34.5425 2.60487C36.0422 1.10082 35.9337 1.15791 36.6763 1.48143ZM29.4122 3.86892C30.5401 4.05269 31.7965 4.55115 32.7318 5.18591C33.2422 5.53226 34.2488 6.52862 34.682 7.11639C35.7176 8.52104 36.3287 10.5072 36.2239 12.1271C36.0585 14.6836 33.2344 19.1666 28.6224 24.1937L28.1113 24.7508L27.8245 24.428C24.1866 20.3343 22.3813 17.9112 21.0916 15.391C20.1623 13.5751 19.8786 12.3084 20.0753 10.8528C20.438 8.16882 22.1103 5.80683 24.4753 4.63842C26.0784 3.8464 27.7117 3.59177 29.4122 3.86892ZM27.3033 7.58168C25.6806 7.93265 24.4803 9.02106 23.9358 10.6354C23.8309 10.9464 23.7906 11.293 23.7906 11.8867C23.7906 13.1499 24.1846 14.1124 25.0605 14.9894C26.7459 16.6767 29.4998 16.6695 31.1941 14.9733C32.5368 13.629 32.8587 11.6903 32.0266 9.96018C31.3313 8.51455 29.9443 7.61038 28.3187 7.54321C27.932 7.52718 27.4751 7.54454 27.3033 7.58168ZM29.4067 9.05734C30.1114 9.38759 30.5674 9.83662 30.917 10.5447C31.1926 11.1031 31.2087 11.177 31.2087 11.8867C31.2087 12.5963 31.1926 12.6702 30.917 13.2286C30.5656 13.9404 30.1134 14.3837 29.3872 14.7281C28.9154 14.9519 28.7944 14.9756 28.1234 14.9756C27.4524 14.9756 27.3315 14.9519 26.8596 14.7281C26.1334 14.3837 25.6812 13.9404 25.3298 13.2286C25.0545 12.6709 25.0381 12.5957 25.0381 11.8907C25.0381 11.2143 25.0615 11.0944 25.2853 10.6214C25.5992 9.95807 26.046 9.47252 26.6289 9.16151C27.2441 8.83322 27.5808 8.75893 28.2991 8.79318C28.7679 8.81555 29.0176 8.87506 29.4067 9.05734ZM26.5227 31.9112L31.5989 38.7879H28.7479L26.5227 31.9112L17.305 27.3709C17.305 27.3709 19.6276 25.0252 19.6496 25.0252C19.6496 25.0252 23.0003 28.3843 26.5227 31.9112ZM26.5227 31.9112L28.7479 38.7879H15.0011H5.90194L10.4318 34.2523C12.9231 31.7576 17.305 27.3709 17.305 27.3709L26.5227 31.9112Z" fill="white"/>
<circle cx="47.5" cy="20.5" r="12.5" fill="#C04A48"/>
<path d="M52 17L45.8125 24L43 20.8182" stroke="white" stroke-width="2" stroke-linecap="round" stroke-linejoin="round"/>
</svg>
