<svg width="90" height="90" viewBox="0 0 90 90" fill="none" xmlns="http://www.w3.org/2000/svg">
<circle cx="45" cy="45" r="45" fill="url(#paint0_linear_132_14)"/>
<path fill-rule="evenodd" clip-rule="evenodd" d="M37.4896 27.0662C37.2124 27.0858 37.0845 27.1375 36.8868 27.3098C36.6667 27.5017 36.628 27.5832 36.5727 27.9727C36.5374 28.2203 36.5088 31.4964 36.5081 35.3758C36.5067 42.2996 36.5074 42.3356 36.648 42.5328C36.7258 42.6418 36.9252 42.8105 37.0912 42.9075L37.3929 43.0841L44.5296 43.0616C51.3692 43.04 51.6772 43.0336 51.9272 42.9097C52.0706 42.8385 52.2631 42.67 52.3549 42.5351L52.5219 42.2899V35.0398V27.7897L52.3336 27.5457C51.9434 27.0398 52.0655 27.0579 48.8432 27.0274L45.9515 27V28.2612C45.9515 28.9548 45.9317 30.0884 45.9075 30.7803L45.8634 32.0382L45.5072 32.3969L45.151 32.7557H44.5499C43.8453 32.7557 43.6401 32.6621 43.296 32.1836L43.077 31.8792V29.4477V27.0161L40.4592 27.0288C39.0194 27.0357 37.683 27.0526 37.4896 27.0662ZM28.025 46.0113C27.6281 46.0562 27.5599 46.0879 27.3295 46.3345C27.1235 46.5549 27.0651 46.6792 27.0284 46.9758C27.0033 47.1781 26.9929 50.4854 27.0052 54.3252C27.0274 61.2525 27.0287 61.3082 27.1688 61.4954C27.2464 61.5992 27.3949 61.7475 27.4988 61.8249C27.6862 61.9647 27.7433 61.966 34.6125 61.9888C38.421 62.0014 41.7369 61.9906 41.981 61.9645C42.3824 61.9218 42.4522 61.8902 42.7086 61.6341L42.9922 61.3509L43.0395 59.7452C43.0655 58.862 43.0769 55.5874 43.0648 52.4683L43.0428 46.797L42.8854 46.5442C42.7987 46.4053 42.6139 46.2208 42.4747 46.1343C42.2227 45.9779 42.208 45.977 39.3714 45.9548L36.5213 45.9326L36.496 48.278C36.4714 50.5571 36.4663 50.6324 36.3142 50.9425C36.0561 51.4683 35.5706 51.7736 34.9926 51.7736C34.46 51.7736 34.0449 51.5271 33.7693 51.0473L33.565 50.6917L33.5643 48.3173L33.5637 45.9429L31.0143 45.9523C29.6121 45.9574 28.2669 45.984 28.025 46.0113ZM47.069 46.0053C46.5089 46.0511 46.2978 46.191 46.0809 46.6604C45.9606 46.9205 45.9545 47.2777 45.953 54.0583L45.9515 61.183L46.1239 61.4429C46.2186 61.5859 46.4153 61.7697 46.5609 61.8515L46.8257 62H53.0507C60.3514 62 61.2663 61.9747 61.5793 61.7645C62.0173 61.47 61.9932 61.9215 61.9972 53.9687C62.0014 45.8191 62.0511 46.5633 61.4749 46.1466L61.1933 45.9429H58.3291H55.4648V48.2578C55.4648 50.7985 55.4597 50.835 55.0442 51.3076C54.7456 51.6472 54.4706 51.773 54.0276 51.7727C53.4346 51.7723 52.9819 51.4888 52.6839 50.9309C52.5676 50.7132 52.554 50.4785 52.5336 48.3173L52.511 45.9429L50.0355 45.954C48.6739 45.9601 47.339 45.9831 47.069 46.0053Z" fill="white"/>
<defs>
<linearGradient id="paint0_linear_132_14" x1="0" y1="45" x2="90" y2="45" gradientUnits="userSpaceOnUse">
<stop stop-color="#27292A"/>
<stop offset="0.0648207" stop-color="#414345"/>
<stop offset="0.223996" stop-color="#303233"/>
<stop offset="0.775681" stop-color="#27292A"/>
<stop offset="1" stop-color="#1D1F20"/>
</linearGradient>
</defs>
</svg>
