<svg width="90" height="90" viewBox="0 0 90 90" fill="none" xmlns="http://www.w3.org/2000/svg">
<circle cx="45" cy="45" r="45" fill="url(#paint0_linear_132_23)"/>
<path fill-rule="evenodd" clip-rule="evenodd" d="M55.4269 28.1107C54.2135 28.299 52.8777 28.7909 51.5756 29.5288C50.2744 30.2663 49.306 30.9767 46.6867 33.1148C43.3458 35.842 41.6899 36.8017 39.6268 37.2064L39.3704 37.2567V43.1621V49.0675L39.6268 49.1178C41.6589 49.5165 43.2926 50.4465 46.3641 52.9537C50.9683 56.7119 52.898 57.8253 55.4867 58.2174C56.9736 58.4426 57.4862 58.3288 57.7628 57.7119C57.8993 57.4075 57.9004 57.2831 57.9004 43.1621C57.9004 29.0411 57.8993 28.9167 57.7628 28.6123C57.4871 27.9977 56.9282 27.8777 55.4269 28.1107ZM31.0632 37.4567C29.4521 37.8494 27.9887 39.2371 27.3757 40.9537C26.1735 44.32 27.9732 48.1355 31.1111 48.8729C31.5436 48.9746 32.1472 48.9968 34.4786 48.9968H37.3191V43.1621V37.3274L34.4301 37.3338C32.139 37.3388 31.4423 37.3642 31.0632 37.4567ZM59.9517 43.1621C59.9517 44.9592 59.9681 46.4295 59.9882 46.4295C60.0083 46.4295 60.1826 46.3384 60.3756 46.2272C61.074 45.8246 61.6873 44.9258 61.91 43.979C62.1729 42.8607 61.8489 41.5763 61.0844 40.7065C60.7923 40.3742 60.1449 39.8947 59.9882 39.8947C59.9681 39.8947 59.9517 41.365 59.9517 43.1621ZM33.2165 56.7017C33.2165 61.9311 33.2201 62.0808 33.3541 62.3797C33.4427 62.5773 33.588 62.7426 33.7617 62.8434C34.0161 62.991 34.1614 63 36.2934 63C38.4254 63 38.5708 62.991 38.8251 62.8434C38.9989 62.7426 39.1441 62.5773 39.2327 62.3797C39.3667 62.0808 39.3704 61.931 39.3704 56.7511V51.4296L39.0531 51.3801C38.8787 51.3529 37.494 51.3307 35.9761 51.3307H33.2165V56.7017Z" fill="white"/>
<defs>
<linearGradient id="paint0_linear_132_23" x1="0" y1="45" x2="90" y2="45" gradientUnits="userSpaceOnUse">
<stop stop-color="#27292A"/>
<stop offset="0.0648207" stop-color="#414345"/>
<stop offset="0.223996" stop-color="#303233"/>
<stop offset="0.775681" stop-color="#27292A"/>
<stop offset="1" stop-color="#1D1F20"/>
</linearGradient>
</defs>
</svg>
