<svg width="90" height="90" viewBox="0 0 90 90" fill="none" xmlns="http://www.w3.org/2000/svg">
<circle cx="45" cy="45" r="45" fill="url(#paint0_linear_134_77)"/>
<path fill-rule="evenodd" clip-rule="evenodd" d="M32.3924 61.8805C33.5206 61.6205 37.1713 59.8393 39.7576 58.2867C45.9177 54.5891 52.5997 49.0549 59.2656 42.1303C61.8544 39.4409 61.9418 39.3123 61.9939 38.1153C62.0189 37.5397 61.976 37.2485 61.6997 36.1147C61.2967 34.4611 61.0168 33.154 60.3627 29.8696C59.9396 27.7447 59.8182 27.2595 59.6801 27.1396C59.4616 26.9498 59.1684 26.9539 58.9808 27.1496C58.7992 27.3389 58.7918 27.4113 58.5291 31.5784C58.4178 33.3435 58.3182 34.8437 58.3079 34.9119C58.2975 34.9803 57.9178 33.3298 57.464 31.2442C57.0103 29.1586 56.5876 27.3684 56.5248 27.266C56.2871 26.8786 55.6739 26.986 55.5739 27.4324C55.551 27.535 55.2657 29.8558 54.94 32.5899C54.565 35.7383 54.3041 37.6485 54.2283 37.7998C54.0357 38.1845 53.7646 38.3953 51.6165 39.8306C50.4954 40.5796 49.4624 41.2733 49.321 41.372L49.0639 41.5514L50.4274 43.4628C51.1773 44.5141 51.84 45.446 51.9001 45.5337C52.0026 45.6832 52.0786 45.6257 53.1118 44.6168C53.718 44.0248 55.0519 42.6791 56.0759 41.6264C58.353 39.2857 58.386 39.231 58.5375 37.542C58.6165 36.6611 59.5411 31.6224 59.6433 31.5158C59.6546 31.504 59.851 32.4604 60.0798 33.6411C60.3085 34.8219 60.6033 36.2382 60.7351 36.7883C60.9953 37.8759 60.9942 38.2884 60.7292 38.83C60.6499 38.9922 59.799 39.9502 58.8384 40.9587C51.7646 48.3861 44.1261 54.5997 37.6483 58.1963C36.4322 58.8715 35.5892 59.2809 35.9487 59.0218C37.9129 57.6058 40.3926 55.696 43.3802 53.298C44.4117 52.4702 45.3043 51.754 45.3639 51.7066C45.4495 51.6384 45.1101 51.097 43.744 49.1225C42.7935 47.7486 41.9707 46.5769 41.9155 46.5184C41.8344 46.4327 40.5443 47.2661 35.2253 50.84C31.6009 53.2752 28.4736 55.4083 28.2758 55.5801C27.0491 56.6457 26.6553 58.384 27.3214 59.7934C27.6402 60.4682 28.2202 61.1099 28.8126 61.4434C29.7287 61.9591 31.2467 62.1445 32.3924 61.8805ZM46.9299 50.3549C47.1279 50.1829 47.2756 49.9959 47.258 49.9392C47.2403 49.8824 46.8541 49.3198 46.3997 48.6888C45.9452 48.0578 45.2011 47.0058 44.7461 46.351C44.2912 45.6961 43.8887 45.1408 43.8516 45.1169C43.8001 45.0837 43.3646 45.3451 42.999 45.6287C42.9855 45.6392 43.599 46.524 44.3624 47.595C45.1258 48.6659 45.9223 49.7953 46.1325 50.1048C46.3427 50.4143 46.5271 50.6675 46.5422 50.6675C46.5574 50.6675 46.7318 50.5268 46.9299 50.3549ZM48.8506 48.6397C49.0659 48.4432 49.2278 48.2461 49.2103 48.2016C49.1928 48.1572 48.4477 47.1176 47.5545 45.8916L45.9307 43.6625L45.5962 43.8752C45.4122 43.9922 45.2108 44.1198 45.1486 44.1586C45.0611 44.2132 45.414 44.7709 46.7028 46.6148C47.6198 47.9268 48.3901 48.9996 48.4146 48.9986C48.439 48.9977 48.6352 48.8362 48.8506 48.6397ZM50.6533 46.9623L50.999 46.5949L49.4969 44.4841C48.6707 43.3232 47.9839 42.3594 47.9707 42.3424C47.9412 42.3042 47.2427 42.7262 47.191 42.8134C47.1647 42.8579 50.0856 47.0983 50.288 47.3092C50.2988 47.3205 50.4631 47.1644 50.6533 46.9623Z" fill="white"/>
<defs>
<linearGradient id="paint0_linear_134_77" x1="0" y1="45" x2="90" y2="45" gradientUnits="userSpaceOnUse">
<stop stop-color="#27292A"/>
<stop offset="0.0648207" stop-color="#414345"/>
<stop offset="0.223996" stop-color="#303233"/>
<stop offset="0.775681" stop-color="#27292A"/>
<stop offset="1" stop-color="#1D1F20"/>
</linearGradient>
</defs>
</svg>
