<svg width="90" height="90" viewBox="0 0 90 90" fill="none" xmlns="http://www.w3.org/2000/svg">
<circle cx="45" cy="45" r="45" fill="url(#paint0_linear_134_79)"/>
<path fill-rule="evenodd" clip-rule="evenodd" d="M30.7295 27.0395C30.3743 27.0983 29.6539 27.3539 29.2582 27.5614C28.7187 27.8444 27.8185 28.7438 27.5352 29.2828C27.4166 29.5084 27.2477 29.9084 27.1598 30.1716L27 30.6501V36.4271C27 42.6803 26.991 42.5142 27.3778 43.3759C27.8745 44.4822 29.0247 45.5046 30.0916 45.7882L30.3775 45.8643L30.3995 47.2816C30.4241 48.8623 30.46 49.0079 30.8899 49.2733C31.1619 49.4413 31.6093 49.4618 31.8792 49.3187C31.9808 49.2648 32.7873 48.4957 33.6715 47.6096L35.2791 45.9984H35.5975H35.9158L35.9479 44.4089C35.9755 43.0335 36.0001 42.7508 36.1298 42.3112C36.7928 40.0652 38.4591 38.3968 40.7204 37.7147C41.2296 37.5612 41.2728 37.5597 46.1094 37.5374L50.9851 37.515L50.9841 34.1851C50.983 30.5323 50.9697 30.3835 50.5695 29.5457C50.1442 28.6555 49.4128 27.9251 48.4874 27.4665C47.4937 26.974 47.9046 26.994 38.9412 27.0031C34.5189 27.0075 30.8236 27.0239 30.7295 27.0395ZM41.2817 39.7102C39.7354 40.1149 38.5145 41.3469 38.1156 42.9052C37.99 43.3957 37.9832 43.7091 37.9832 49.0049C37.9832 52.6471 38.0085 54.7284 38.0559 54.9931C38.096 55.2162 38.2696 55.691 38.4418 56.0482C38.9735 57.1515 39.9313 57.9726 41.1652 58.3833L41.6443 58.5427L47.6657 58.5628L53.6872 58.5828L55.3642 60.2491C57.1519 62.0255 57.2265 62.079 57.7561 61.9628C57.9911 61.9112 58.3331 61.6508 58.4628 61.4247C58.5183 61.3278 58.5583 60.7949 58.581 59.85L58.6152 58.4217L58.8889 58.3399C59.3483 58.2025 59.9843 57.8479 60.4185 57.4869C61.1945 56.8418 61.7862 55.7811 61.9319 54.7741C61.9723 54.4954 61.9998 52.1259 62 48.9381C62.0002 42.938 62.0065 43.0309 61.5281 42.0673C61.0691 41.1428 60.338 40.412 59.4469 39.9872C58.5441 39.5568 58.9361 39.5737 49.9586 39.5767C42.1312 39.5793 41.7598 39.5851 41.2817 39.7102ZM54.2123 45.8011C54.5918 46.0711 54.7503 46.6979 54.5412 47.1021C54.4117 47.3522 49.6889 52.0746 49.3465 52.2962C49.0051 52.5173 48.6302 52.554 48.33 52.3958C48.2284 52.3423 47.5241 51.6731 46.765 50.9089C45.597 49.733 45.3774 49.4799 45.3375 49.2634C45.2152 48.6003 45.6825 48.0494 46.3672 48.0494C46.7403 48.0494 46.9087 48.1714 47.8708 49.1388L48.7597 50.0326L50.8818 47.9155C52.1431 46.6572 53.101 45.7556 53.2433 45.6929C53.538 45.5628 53.9406 45.6078 54.2123 45.8011Z" fill="white"/>
<defs>
<linearGradient id="paint0_linear_134_79" x1="0" y1="45" x2="90" y2="45" gradientUnits="userSpaceOnUse">
<stop stop-color="#27292A"/>
<stop offset="0.0648207" stop-color="#414345"/>
<stop offset="0.223996" stop-color="#303233"/>
<stop offset="0.775681" stop-color="#27292A"/>
<stop offset="1" stop-color="#1D1F20"/>
</linearGradient>
</defs>
</svg>
