<svg width="18" height="18" viewBox="0 0 18 18" fill="none" xmlns="http://www.w3.org/2000/svg">
<path fill-rule="evenodd" clip-rule="evenodd" d="M1.09902 0.0475133C0.540773 0.183259 0.119427 0.64393 0.0192874 1.22793C-0.0334732 1.53569 0.0277643 2.80077 0.133145 3.5805C0.566521 6.78606 1.80203 9.5873 3.89828 12.117C4.27383 12.5703 5.42943 13.726 5.88265 14.1016C8.4122 16.198 11.2132 17.4336 14.4185 17.867C15.204 17.9732 16.463 18.0337 16.7749 17.9802C17.3712 17.8779 17.8374 17.4356 17.9605 16.8554C17.9867 16.7315 18 16.0762 18 14.9017C18 13.0183 17.9926 12.9222 17.8218 12.5874C17.725 12.3977 17.4933 12.1498 17.315 12.0454C17.0468 11.8881 16.8754 11.8497 16.2941 11.8165C15.201 11.7541 14.501 11.6421 13.6219 11.389C13.1735 11.2599 13.1022 11.2488 12.8092 11.2616C12.5258 11.274 12.4604 11.29 12.2552 11.3973C12.1272 11.4643 11.5477 11.8792 10.9675 12.3193C10.3872 12.7595 9.90107 13.1196 9.88711 13.1196C9.84068 13.1196 9.15929 12.7225 8.7493 12.4566C7.22808 11.4698 6.06991 10.2276 5.12521 8.5695C4.91143 8.19428 4.87439 8.10672 4.90721 8.05417C4.92894 8.01934 5.29858 7.52627 5.72862 6.95842C6.15865 6.3906 6.54676 5.86211 6.59108 5.78402C6.6354 5.70593 6.69744 5.5413 6.729 5.41815C6.80142 5.13554 6.78028 4.95027 6.60448 4.32546C6.36059 3.45868 6.24026 2.69532 6.19974 1.75758C6.17628 1.21463 6.12169 0.95088 5.98423 0.716323C5.78792 0.381303 5.39897 0.10566 5.02166 0.0340759C4.7433 -0.018724 1.32318 -0.00701025 1.09902 0.0475133Z" fill="#BAB8B8"/>
</svg>
