<svg width="18" height="13" viewBox="0 0 18 13" fill="none" xmlns="http://www.w3.org/2000/svg">
<path fill-rule="evenodd" clip-rule="evenodd" d="M1.18036 0.0560182C1.07398 0.085345 0.971331 0.12529 0.952309 0.144793C0.913738 0.184341 8.56162 8.0554 8.72524 8.14461C8.84765 8.21136 9.15235 8.21136 9.27475 8.14461C9.43711 8.05609 17.0863 0.184341 17.048 0.14519C17.0291 0.125868 16.9192 0.0848393 16.8038 0.0540318C16.617 0.00419068 15.7519 -0.00176858 8.9838 0.000362303C2.3916 0.00242096 1.34792 0.00986102 1.18036 0.0560182ZM0.0644618 1.12663C0.00313502 1.30696 0 1.56949 0 6.49899C0 11.4285 0.00313502 11.691 0.0644618 11.8714C0.0999335 11.9756 0.139597 12.061 0.15263 12.061C0.165628 12.061 1.39678 10.8095 2.88845 9.27998L5.60061 6.49899L2.88845 3.718C1.39678 2.18846 0.165628 0.937013 0.15263 0.937013C0.139597 0.937013 0.0999335 1.02232 0.0644618 1.12663ZM15.1115 3.718L12.3994 6.49899L15.1115 9.27998C16.6032 10.8095 17.8344 12.061 17.8474 12.061C17.8604 12.061 17.9001 11.9756 17.9355 11.8714C17.9969 11.691 18 11.4285 18 6.49899C18 1.56949 17.9969 1.30696 17.9355 1.12663C17.9001 1.02232 17.8604 0.937013 17.8474 0.937013C17.8344 0.937013 16.6032 2.18846 15.1115 3.718ZM3.61141 10.0556C1.86545 11.8459 0.929765 12.8301 0.951992 12.8528C0.970873 12.8721 1.08077 12.9131 1.19624 12.9439C1.38283 12.9938 2.25144 13 9 13C15.7486 13 16.6172 12.9938 16.8038 12.9439C16.9192 12.9131 17.0292 12.8721 17.048 12.8528C17.0703 12.83 16.1334 11.8447 14.3808 10.0477L11.6793 7.27781L10.8416 8.12876C10.0751 8.9074 9.98014 8.99169 9.72395 9.12081L9.44398 9.26192H9H8.55602L8.27605 9.12031C8.02074 8.99119 7.92292 8.90447 7.16559 8.13612C6.70879 7.67271 6.32832 7.29356 6.32008 7.29356C6.31184 7.29356 5.09294 8.53648 3.61141 10.0556Z" fill="#BAB8B8"/>
</svg>
