<svg width="18" height="20" viewBox="0 0 18 20" fill="none" xmlns="http://www.w3.org/2000/svg">
<path fill-rule="evenodd" clip-rule="evenodd" d="M8.073 0.0499856C6.92116 0.217783 5.89206 0.723481 5.08544 1.51807C4.20059 2.38973 3.74203 3.39628 3.67897 4.60529C3.59091 6.2939 4.48512 7.90812 6.02686 8.84373C6.78518 9.30389 7.51659 9.53755 8.40249 9.60259C10.0445 9.72313 11.4447 9.24487 12.575 8.17731C13.4699 7.33222 13.9274 6.41272 14.0389 5.23587C14.1877 3.66382 13.5494 2.19973 12.2697 1.17825C11.4444 0.519411 10.6829 0.194018 9.63359 0.0517445C9.12948 -0.0166174 8.53485 -0.0172818 8.073 0.0499856ZM4.2423 9.6901C2.33493 9.87678 1.01319 11.1451 0.396845 13.3802C-0.0141379 14.8705 -0.119836 16.6614 0.14538 17.6406C0.358463 18.4271 1.06115 19.2253 1.8751 19.6054C2.24483 19.778 2.77303 19.9212 3.21345 19.9681C3.47441 19.9959 5.46644 20.0054 9.27507 19.9971L14.948 19.9846L15.3065 19.8934C16.6375 19.5549 17.5509 18.7285 17.8833 17.5624C18.0565 16.9549 18.0343 15.5093 17.8343 14.3671C17.3897 11.8279 16.2679 10.3034 14.4936 9.82694C14.0878 9.71801 13.362 9.63515 13.1469 9.67325C12.9411 9.70968 12.6533 9.85215 12.0038 10.2391C11.3119 10.6514 11.216 10.6983 10.6979 10.8782C10.0978 11.0865 9.60263 11.1743 9.02787 11.1744C8.43383 11.1744 7.97958 11.099 7.38044 10.901C6.81466 10.714 6.79015 10.702 5.90657 10.182C5.44062 9.90773 5.0959 9.73208 4.95891 9.69917C4.72478 9.64289 4.72482 9.64289 4.2423 9.6901Z" fill="#BAB8B8"/>
</svg>
