<svg width="15" height="18" viewBox="0 0 15 18" fill="none" xmlns="http://www.w3.org/2000/svg">
<path fill-rule="evenodd" clip-rule="evenodd" d="M6.70183 0.0377843C5.34834 0.167739 3.88898 0.718782 2.83363 1.4983C2.52627 1.72533 1.93827 2.26161 1.68408 2.54676C0.449746 3.93133 -0.168683 5.82626 0.0398841 7.58494C0.170827 8.68914 0.614488 9.82831 1.24964 10.6911C1.37251 10.8579 2.75578 12.5707 4.32361 14.4972L7.17416 18H7.50157H7.82903L10.6795 14.4971C12.2473 12.5704 13.6306 10.8577 13.7534 10.6909C13.8763 10.5241 14.0844 10.1881 14.216 9.94421C15.2524 8.02333 15.2617 5.79768 14.2412 3.88288C12.8461 1.26518 9.84726 -0.264248 6.70183 0.0377843ZM8.01826 4.65639C8.93869 4.83332 9.73951 5.56895 9.93212 6.41447C10.0492 6.92866 9.97858 7.41796 9.71639 7.90881C9.4924 8.32817 9.06807 8.71797 8.61155 8.92373C7.8745 9.25597 7.12857 9.25597 6.39152 8.92373C5.935 8.71797 5.51067 8.32817 5.28668 7.90881C4.92501 7.23175 4.92501 6.54653 5.28668 5.86947C5.59955 5.28373 6.27857 4.7939 6.96567 4.65835C7.29373 4.59362 7.68786 4.59289 8.01826 4.65639Z" fill="#BAB8B8"/>
</svg>
